<svg width="345" height="86" viewBox="0 0 345 86" fill="none" xmlns="http://www.w3.org/2000/svg">
  <path d="M318.796 73.8706C326.356 73.8706 332.4 67.8238 332.4 58.7543C332.4 49.6843 326.356 43.638 318.796 43.638C311.238 43.638 305.191 49.6843 305.191 58.7543C305.191 67.8238 311.238 73.8706 318.796 73.8706ZM318.796 32.049C333.915 32.049 345 43.1344 345 58.7543C345 74.3742 333.915 85.4596 318.796 85.4596C303.68 85.4596 292.595 74.3742 292.595 58.7543C292.595 43.1344 303.68 32.049 318.796 32.049Z" fill="#fff"></path>
  <path d="M265.881 72.3589V45.1495H257.818V33.0568H265.881V18.4442H278.477V33.0568H290.066V45.1495H278.477V69.8393C278.477 72.1572 279.687 73.3666 282.004 73.3666H290.066V84.452H278.981C270.415 84.452 265.881 80.0178 265.881 72.3589Z" fill="#fff"></path>
  <path d="M0.000481202 84.6822H12.5972V44.8106H34.0236V33.0567H0L0.000481202 84.6822Z" fill="#fff"></path>
  <path d="M243.181 65.3047H255.778C254.165 73.3665 247.816 85.4596 231.592 85.4596C216.476 85.4596 205.39 74.3742 205.39 58.7543C205.39 43.1344 216.476 32.049 231.592 32.049C247.816 32.049 254.165 44.1421 255.778 51.7002H243.181C242.073 48.7774 239.15 43.638 231.592 43.638C224.034 43.638 217.987 49.6843 217.987 58.7543C217.987 67.8238 224.034 73.8706 231.592 73.8706C239.15 73.8706 242.073 68.832 243.181 65.3047Z" fill="#fff"></path>
  <path d="M151.521 63.7934V33.0567H164.118V62.7857C164.118 69.3356 168.652 73.8706 175.203 73.8706C181.753 73.8706 186.288 69.3356 186.288 62.7857V33.0567H198.885V84.4519H187.296L186.288 79.4133H185.784C184.877 80.5219 183.668 81.5296 182.358 82.4365C180.04 83.9483 176.412 85.4596 171.676 85.4596C160.087 85.4596 151.521 76.8938 151.521 63.7934Z" fill="#fff"></path>
  <path d="M116.237 73.8702C123.896 73.8702 129.338 68.4283 129.338 58.7539C129.338 49.08 123.896 43.6381 116.237 43.6381C108.578 43.6381 103.136 49.08 103.136 58.7539C103.136 68.4283 108.578 73.8702 116.237 73.8702ZM130.849 84.4515L129.842 78.9093H129.338C128.33 80.219 127.121 81.3276 125.71 82.2345C123.292 83.8471 119.462 85.4592 114.222 85.4592C101.121 85.4592 90.5396 74.8779 90.5396 58.7539C90.5396 42.6304 101.121 32.0491 114.222 32.0491C119.361 32.0491 122.888 33.7621 125.307 35.3743C126.718 36.2816 127.927 37.3902 128.834 38.5991H129.338V13.9097H141.935V84.4515H130.849Z" fill="#fff"></path>
  <path d="M47.7261 54.2193H73.9278C72.8193 47.6689 68.486 42.6303 61.3311 42.6303C53.6721 42.6303 49.238 47.6689 47.7261 54.2193ZM71.9124 69.3356H85.0128C83.9042 73.3664 77.5554 85.4596 61.3311 85.4596C46.2148 85.4596 35.1294 74.3742 35.1294 58.7543C35.1294 43.1344 46.2148 32.049 61.3311 32.049C75.4392 32.049 86.5246 43.1344 86.5246 57.7465C86.5246 59.2584 86.323 60.4673 86.2221 61.3746L86.0205 62.7851H47.7261C48.8347 69.94 54.1758 74.8783 61.3311 74.8783C67.2766 74.8783 70.9047 71.4518 71.9124 69.3356Z" fill="#fff"></path>
</svg>