<svg width="200" height="75" viewBox="0 0 200 75" fill="none" xmlns="http://www.w3.org/2000/svg">
<g clip-path="url(#clip0_1129_239)">
<mask id="mask0_1129_239" style="mask-type:luminance" maskUnits="userSpaceOnUse" x="29" y="26" width="143" height="24">
<path d="M172 26.0273H29V49.6654H172V26.0273Z" fill="white"></path>
</mask>
<g mask="url(#mask0_1129_239)">
<path d="M42.8007 30.1201L29.6623 39.2685C29.2473 39.5575 28.9998 40.0324 29 40.5394L29.0018 44.8447C29.0019 45.2151 29.1093 45.5714 29.3032 45.8745C29.355 45.9553 29.4208 46.0216 29.4953 46.0719L32.4026 48.1941C32.4273 48.2237 32.4556 48.2512 32.4892 48.2746L33.0248 48.6482C33.5416 49.0087 34.1559 49.2019 34.7852 49.2019H43.5191C43.6892 49.2019 43.8271 49.0636 43.8271 48.8929V42.3569C43.8271 42.1862 43.6892 42.0477 43.5191 42.0477H40.5284C40.2346 42.0477 39.9482 42.1407 39.71 42.3135L34.5287 46.0708C34.2751 46.2547 33.9319 46.252 33.6812 46.0641L32.5062 45.1834C32.2703 45.0065 32.2759 44.6497 32.5174 44.4805L42.9744 37.1534C43.5085 36.7815 43.8271 36.1704 43.8271 35.518V30.6592C43.8271 30.1297 43.2342 29.8183 42.8007 30.1201Z" fill="black"></path>
<path d="M29.728 26.0273C29.3286 26.0273 29.0049 26.3523 29.0049 26.7531V29.4972C29.0049 29.7705 29.1382 30.0265 29.3619 30.1825L32.9616 32.6933C33.475 33.0515 34.1563 33.0515 34.6698 32.6933L40.8697 28.3687C41.1078 28.2026 41.3908 28.1136 41.6808 28.1136H45.5845C45.8965 28.1136 46.1493 28.3674 46.1493 28.6804V43.997C46.1493 45.1543 46.7139 46.2383 47.6608 46.8987L50.5034 48.8815C50.7992 49.0878 51.1508 49.1984 51.511 49.1984H52.8304C53.0769 49.1984 53.2767 48.9979 53.2767 48.7506V31.234C53.2767 30.0767 52.7121 28.9927 51.7652 28.3323L49.2097 26.5498C48.7221 26.2097 48.1424 26.0273 47.5486 26.0273H29.728Z" fill="black"></path>
<path d="M71.4447 26.0273H75.8976L84.7048 49.2018H81.0763L78.6025 42.4482H68.7068L66.233 49.2018H62.6375L71.4447 26.0273ZM77.5139 39.4354L73.6547 28.9077L69.7954 39.4354H77.5139Z" fill="black"></path>
<path d="M85.7856 33.278H88.6223V35.3637C89.5789 33.6422 91.4921 32.8145 93.6362 32.8145C97.5284 32.8145 99.9695 35.1982 99.9695 39.6012V49.2021H96.7698V39.8993C96.7698 37.052 95.3843 35.7279 93.0425 35.7279C90.6015 35.7279 88.9853 37.4164 88.9853 39.9985V49.2021H85.7856V33.278Z" fill="black"></path>
<path d="M104.483 45.3627V36.093H100.327V33.279H104.483V28.5117H107.568V33.279H112.548V36.093H107.568V44.7338C107.568 45.8926 108.03 46.3891 109.25 46.3891H112.548V49.2031H108.293C105.556 49.2031 104.483 48.1106 104.483 45.3627Z" fill="black"></path>
<path d="M113.01 41.1573C113.01 36.0258 116.176 32.8145 120.695 32.8145C125.412 32.8145 128.315 35.8934 128.315 40.7601C128.315 41.1904 128.281 41.6208 128.216 42.2829H116.176C116.308 45.1964 118.089 46.9509 120.925 46.9509C122.806 46.9509 124.126 46.0901 124.752 44.6665H128.017C127.028 47.7456 124.587 49.6657 120.925 49.6657C116.176 49.6657 113.01 46.322 113.01 41.1573ZM125.082 39.7669V39.6013C125.082 37.1514 123.499 35.3968 120.695 35.3968C118.023 35.3968 116.308 37.1845 116.176 39.7669H125.082Z" fill="black"></path>
<path d="M129.713 33.2793H132.549V35.8617C132.945 34.2726 134.133 33.2793 136.013 33.2793H139.048V36.0934H135.716C133.737 36.0934 132.912 37.219 132.912 39.3709V49.2034H129.713V33.2793Z" fill="black"></path>
<path d="M140.102 27.0684H143.665V30.8756H140.102V27.0684ZM140.3 33.2777H143.5V49.2018H140.3V33.2777Z" fill="black"></path>
<path d="M144.904 41.2236C144.904 36.1913 148.268 32.8145 153.085 32.8145C157.933 32.8145 161.265 36.1913 161.265 41.2236C161.265 46.2888 157.933 49.6657 153.085 49.6657C148.268 49.6657 144.904 46.2888 144.904 41.2236ZM153.085 46.7524C156.02 46.7524 157.966 44.5341 157.966 41.2236C157.966 37.946 156.02 35.7279 153.085 35.7279C150.182 35.7279 148.203 37.946 148.203 41.2236C148.203 44.5341 150.182 46.7524 153.085 46.7524Z" fill="black"></path>
<path d="M162.665 33.2793H165.502V35.8617C165.897 34.2726 167.085 33.2793 168.966 33.2793H172V36.0934H168.668C166.689 36.0934 165.865 37.219 165.865 39.3709V49.2034H162.665V33.2793Z" fill="black"></path>
</g>
</g>
<defs>
<clipPath id="clip0_1129_239">
<rect width="143" height="23.6815" fill="white" transform="translate(29 26)"></rect>
</clipPath>
</defs>
</svg>