<svg width="200" height="75" viewBox="0 0 200 75" fill="none" xmlns="http://www.w3.org/2000/svg">
<path d="M64.4312 45.2236L61.4014 47.2952V47.4405H70.9957V47.2952L67.9659 45.2236V24.217L70.9957 22.1454V22H61.4014V22.1454L64.4312 24.217V33.4482H52.5645V24.217L55.5943 22.1454V22H46V22.1454L49.0298 24.217V45.2236L46 47.2952V47.4405H55.5943V47.2952L52.5645 45.2236V35.0474H64.4312V45.2236ZM77.8127 47.804C79.7244 47.804 81.636 46.6773 82.9705 45.1145V47.4405H89.0301V47.2952L86.2889 45.1509V34.7566C86.2889 31.2313 83.8362 29.4868 79.9047 29.4868C77.8488 29.4868 75.0354 30.1773 73.232 30.9042V35.4108H73.3762C75.5404 32.4306 77.5963 30.9405 79.6522 30.9405C81.7081 30.9405 82.9705 32.3943 82.9705 35.12V36.9372L78.498 37.9912C74.4583 38.8998 72.6549 40.4989 72.6549 43.0066C72.6549 45.7687 74.8911 47.804 77.8127 47.804ZM78.9669 45.478C77.3438 45.478 76.1535 44.2786 76.1535 42.6432C76.1535 41.0077 77.2356 39.6993 79.3637 39.2269L82.9705 38.391V43.8425C81.4557 44.9328 80.1211 45.478 78.9669 45.478ZM103.241 33.2665L110.455 47.9493H111.104L118.174 32.2126L120.338 30.0683V29.9229H113.737V30.0319L116.478 32.0308L111.609 42.8249L106.271 32.0308L108.94 30.0319V29.9229H103.313C99.8868 29.9229 97.6145 30.9769 95.811 33.0485V29.6685L89.7515 31.0859V31.2676L92.4927 32.8667V45.1509L89.7515 47.2952V47.4405H99.2737V47.2952L95.811 45.1509V34.7566C97.0735 33.3392 98.5883 32.685 100.175 32.685C101.185 32.685 102.123 32.8304 103.241 33.2665ZM128.165 47.804C131.483 47.804 133.287 45.7324 135.162 43.6971L134.26 42.8612C132.421 44.6057 131.014 45.3689 129.175 45.3689C125.64 45.3689 123.007 42.098 123.007 37.5187H135.054V36.9736C135.054 32.685 132.529 29.4868 128.381 29.4868C123.764 29.4868 119.977 33.6663 119.977 38.8271C119.977 44.0242 123.584 47.804 128.165 47.804ZM131.447 35.9559H123.115C123.548 32.7941 125.532 30.9769 127.804 30.9769C130.076 30.9769 131.483 32.6123 131.483 35.2291C131.483 35.5562 131.483 35.8106 131.447 35.9559ZM137.615 32.2126L145.081 47.2225L139.671 55H143.747L152.836 32.2126L155 30.0683V29.9229H148.399V30.0319L151.177 32.0308L146.668 43.043L141.186 32.0308L143.855 30.0319V29.9229H135.306V30.0683L137.615 32.2126Z" fill="#0F0E0D"></path>
</svg>