<svg width="200" height="75" viewBox="0 0 200 75" fill="none" xmlns="http://www.w3.org/2000/svg">
<g clip-path="url(#clip0_2970_808)">
<path d="M144.171 52.4206H149V22H144.171V52.4206ZM50 52.4206H54.8293V22H50V52.4206ZM65.635 52.8393C68.6805 52.8393 71.9001 51.1181 72.9442 46.7921C72.9698 46.6861 73.1182 46.699 73.1182 46.7921V52.4206H77.7736V36.8839C77.7736 32.0462 74.989 29.5808 70.4643 29.5808C64.7649 29.5808 60.8927 32.1858 60.0226 34.8372C59.6745 36.0466 59.7616 37.7678 61.3278 38.3725C63.0681 38.9772 64.7649 37.3026 65.461 35.3024C65.9395 33.9534 67.5058 31.9532 69.5071 31.9532C72.2916 31.9532 73.1182 33.6743 73.1182 35.8606C73.1182 37.2561 72.4222 37.7213 70.8559 38.1399L67.0273 39.1632C62.0675 40.5123 59.37 42.6985 59.37 46.6525C59.37 50.6064 62.0239 52.8393 65.635 52.8393ZM64.1123 45.6756C64.1123 43.5359 65.2435 42.0938 67.6363 41.3961C72.1611 40.0471 72.7702 39.7215 73.1182 38.8377V43.3963C73.1182 46.6525 71.0299 49.397 67.7669 49.397C65.7656 49.397 64.1123 48.3736 64.1123 45.6756ZM89.1724 52.8393C92.6094 52.8393 94.8283 51.025 95.742 47.4898C95.742 47.3968 95.8725 47.3968 95.8725 47.4898V52.4206H100.658V30.139H94.5673C94.3497 30.139 94.3497 30.3716 94.4802 30.4646C95.3939 31.2089 95.8725 32.744 95.8725 34.8372V44.0941C95.8725 47.7223 94.1322 48.9318 91.2607 48.9318C88.3892 48.9318 86.7795 47.5828 86.7795 44.0941V30.139H80.732C80.5145 30.139 80.4709 30.3716 80.6014 30.4646C81.5151 31.2089 81.9937 32.744 81.9937 34.8372V44.0941C81.9937 49.9552 84.8216 52.8393 89.1724 52.8393ZM105.749 52.4206H110.447V39.7215C110.447 36.4187 112.362 34.372 113.928 33.9999C116.364 33.4417 116.321 35.535 118.714 35.535C120.28 35.535 121.542 33.4882 120.323 31.488C119.497 30.139 117.408 29.4413 115.538 29.7669C112.666 30.3251 111.274 32.4649 110.578 35.8141C110.556 35.9171 110.447 35.9155 110.447 35.8141V30.139H104.443C104.226 30.139 104.226 30.3716 104.313 30.4646C105.227 31.2089 105.749 32.744 105.749 34.8372V52.4206ZM131.374 52.8393C135.594 52.8393 139.684 50.3738 140.598 44.2336C140.598 44.0476 140.424 44.0011 140.337 44.1406C138.727 47.2107 135.943 48.5597 133.071 48.5597C129.199 48.5597 125.892 46.0012 125.892 40.0006V39.3958H140.293L140.206 37.9539C139.902 33.1626 136.813 29.5808 131.679 29.5808C125.718 29.5808 121.281 34.6046 121.281 41.3961C121.237 48.0014 125.501 52.8393 131.374 52.8393ZM126.153 37.2561C126.806 33.9999 128.72 31.8601 131.592 31.9532C134.463 31.8601 135.812 33.9534 135.812 37.2561H126.153Z" fill="black"></path>
</g>
<defs>
<clipPath id="clip0_2970_808">
<rect width="99" height="31" fill="white" transform="translate(50 22)"></rect>
</clipPath>
</defs>
</svg>