<svg width="200" height="75" viewBox="0 0 200 75" fill="none" xmlns="http://www.w3.org/2000/svg">
<g clip-path="url(#clip0_1122_16)">
<path d="M38.3536 23.4466V23.5284C36.3572 24.3616 35.9825 25.8179 35.9825 28.5616V51.5157H40.4291C45.0829 51.5157 47.2019 49.312 49.5295 44.3211H49.6126L48.4911 52.5548H30V52.4729C31.9951 51.6411 32.3685 50.1848 32.3685 47.4411V28.5602C32.3685 25.8166 31.9951 24.3602 30 23.5284V23.4466H38.3536ZM66.7342 23.4452C67.4414 23.4452 68.2305 23.4043 68.687 23.1548L69.893 30.2648H69.8099C67.7317 26.3143 65.4859 24.4448 60.8335 24.4448H56.6771V37.252H59.9204C63.2864 37.252 64.3248 36.5034 65.7366 32.6361H65.8198V42.2007H65.738C64.3235 38.3743 63.2851 38.2079 59.9191 38.2079H56.6785V51.5579H61.4154C66.0691 51.5579 68.6461 49.5193 70.7652 44.9866H70.8483L69.7267 52.5548H50.6933V52.4716C52.6883 51.6398 53.0631 50.1848 53.0631 47.4398V28.5602C53.0631 25.8152 52.6883 24.3602 50.6933 23.5284V23.4466L66.7342 23.4452ZM76.501 38.4152C76.501 46.2752 79.5344 51.472 84.4785 51.472C87.8036 51.472 90.3383 49.1852 90.3383 45.1516V43.987C90.3383 41.2434 89.9226 39.8293 88.0107 38.9552V38.8734H95.7824V38.9552C94.1608 39.787 93.8705 41.2434 93.8705 43.987V52.9693H93.7887L90.6694 48.0629C89.9213 50.6811 87.3443 52.9693 83.7303 52.9693C77.1632 52.9693 72.3432 46.7729 72.3432 38.3743C72.3432 29.3511 77.8705 23.0293 84.5193 23.0293C87.1372 23.0293 88.8829 24.3602 90.1706 24.3602C91.2922 24.3602 92.0826 23.6538 92.5391 23.0293L92.8716 32.5529H92.7898C91.4189 27.8116 88.425 23.9866 84.687 23.9866C79.4922 23.9866 76.501 29.8502 76.501 38.4152ZM108.998 52.9693C102.557 52.9693 97.1534 46.732 97.1534 37.9993C97.1534 29.2679 102.557 23.0293 108.997 23.0293C115.439 23.0293 120.839 29.2679 120.839 37.9993C120.839 46.732 115.398 52.9693 108.998 52.9693ZM108.998 23.9866C103.802 23.9866 101.393 30.0575 101.393 37.9993C101.393 45.9425 103.802 52.0134 108.997 52.0134C114.192 52.0134 116.601 45.9425 116.601 37.9993C116.601 30.0575 114.193 23.9866 108.998 23.9866ZM132.1 23.4466C137.792 23.4466 142.571 25.4416 142.571 31.0966C142.571 36.2948 137.834 38.332 133.387 38.4984C137.459 38.8311 139.621 40.8275 140.452 43.8629L141.365 47.3566C142.238 50.4752 143.361 51.5566 145.896 52.4702V52.5534H139.787C138.996 51.7625 138.25 50.017 137.709 48.0629L136.712 44.362C135.922 41.2843 134.675 38.8734 131.019 38.8734H127.985V47.4398C127.985 50.1834 128.359 51.6398 130.354 52.4716V52.5534H122V52.4716C123.995 51.6398 124.37 50.1834 124.37 47.4398V28.5602C124.37 25.8166 123.995 24.3602 122.002 23.5284V23.4466H132.1ZM127.984 37.8329H131.475C135.632 37.8329 138.582 36.2116 138.582 31.1798C138.582 26.6061 136.007 24.4857 131.475 24.4857H127.985V37.8343L127.984 37.8329Z" fill="#0A0A0A"></path>
<path d="M150.217 52.5534H143.694V52.4716C145.397 51.5975 146.395 49.7252 147.433 46.8984L156.286 23.0293H156.411L165.844 47.8966C166.882 50.6402 167.34 51.5975 169.001 52.4702V52.5534H160.774V52.4716C162.021 51.9711 162.602 51.2648 162.602 50.2666C162.602 49.6011 162.395 48.7693 162.02 47.7711L160.109 42.7393H150.219L148.722 46.7729C148.391 47.6048 148.183 48.4775 148.183 49.3516C148.183 50.7657 148.889 51.8879 150.219 52.4702L150.217 52.5534ZM150.592 41.7002H159.692L155.08 29.5175L150.592 41.7002Z" fill="#0A0A0A"></path>
</g>
<defs>
<clipPath id="clip0_1122_16">
<rect width="139" height="30" fill="white" transform="translate(30 23)"></rect>
</clipPath>
</defs>
</svg>