<svg width="200" height="75" viewBox="0 0 200 75" fill="none" xmlns="http://www.w3.org/2000/svg">
<g clip-path="url(#clip0_3262_968)">
<path d="M110.576 29.9102V49.0586H108.223V29.9102H110.576Z" fill="black" stroke="black" stroke-width="0.15"></path>
<path d="M146.293 35.1104V31.5566H148.647V35.1104H151.89V37.0452H148.647V45.1975C148.647 46.4006 149.51 46.8648 150.592 46.8648C150.944 46.8648 151.349 46.8648 151.754 46.8648V49.1885C151.187 49.2159 150.592 49.1885 149.943 49.1885C147.348 49.1885 146.293 47.8217 146.293 45.2521V37.3791" fill="black"></path>
<mask id="mask0_3262_968" style="mask-type:luminance" maskUnits="userSpaceOnUse" x="146" y="31" width="6" height="19">
<path d="M151.955 31.4673H146.203V49.2692H151.955V31.4673Z" fill="white"></path>
<path d="M146.293 35.1104V31.5566H148.647V35.1104H151.89V37.0452H148.647V45.1975C148.647 46.4006 149.51 46.8648 150.592 46.8648C150.944 46.8648 151.349 46.8648 151.754 46.8648V49.1885C151.187 49.2159 150.592 49.1885 149.943 49.1885C147.348 49.1885 146.293 47.8217 146.293 45.2521V37.3791" fill="black"></path>
</mask>
<g mask="url(#mask0_3262_968)">
<path d="M146.291 31.5566V31.5432H146.277V31.5566H146.291ZM148.644 31.5566H148.658V31.5432H148.644V31.5566ZM148.644 35.1104H148.631V35.1238H148.644V35.1104ZM151.887 35.1104H151.901V35.097H151.887V35.1104ZM151.887 37.0452V37.0586H151.901V37.0452H151.887ZM148.644 37.0452V37.0317H148.631V37.0452H148.644ZM151.752 46.8648H151.765V46.8514H151.752V46.8648ZM151.752 49.1885L151.753 49.2019L151.765 49.2013V49.1885H151.752ZM146.291 35.1104H146.304V31.5566H146.291H146.277V35.1104H146.291ZM146.291 31.5566V31.5701H148.644V31.5566V31.5432H146.291V31.5566ZM148.644 31.5566H148.631V35.1104H148.644H148.658V31.5566H148.644ZM148.644 35.1104V35.1238H151.887V35.1104V35.097H148.644V35.1104ZM151.887 35.1104H151.874V37.0452H151.887H151.901V35.1104H151.887ZM151.887 37.0452V37.0317H148.644V37.0452V37.0586H151.887V37.0452ZM148.644 37.0452H148.631V45.1975H148.644H148.658V37.0452H148.644ZM148.644 45.1975H148.631C148.631 45.8027 148.849 46.2238 149.204 46.493C149.557 46.762 150.047 46.8783 150.589 46.8783V46.8648V46.8514C150.05 46.8514 149.567 46.7357 149.219 46.4716C148.872 46.208 148.658 45.7955 148.658 45.1975H148.644ZM150.589 46.8648V46.8783C150.59 46.8783 150.591 46.8783 150.592 46.8783C150.592 46.8783 150.593 46.8783 150.594 46.8783C150.594 46.8783 150.594 46.8783 150.595 46.8783C150.596 46.8783 150.597 46.8783 150.598 46.8783C150.598 46.8783 150.599 46.8783 150.6 46.8783C150.601 46.8783 150.601 46.8783 150.602 46.8783C150.602 46.8783 150.603 46.8783 150.604 46.8783C150.604 46.8783 150.605 46.8783 150.606 46.8783C150.607 46.8783 150.607 46.8783 150.608 46.8783C150.609 46.8783 150.61 46.8783 150.61 46.8783C150.61 46.8783 150.611 46.8783 150.612 46.8783C150.613 46.8783 150.613 46.8783 150.614 46.8783C150.615 46.8783 150.616 46.8783 150.617 46.8783C150.617 46.8783 150.617 46.8783 150.618 46.8783C150.619 46.8783 150.619 46.8783 150.62 46.8783C150.621 46.8783 150.622 46.8783 150.623 46.8783C150.623 46.8783 150.624 46.8783 150.625 46.8783C150.625 46.8783 150.626 46.8783 150.626 46.8783C150.627 46.8783 150.628 46.8783 150.629 46.8783C150.629 46.8783 150.63 46.8783 150.631 46.8783C150.632 46.8783 150.633 46.8783 150.633 46.8783C150.633 46.8783 150.634 46.8783 150.635 46.8783C150.636 46.8783 150.636 46.8783 150.637 46.8783C150.638 46.8783 150.639 46.8783 150.639 46.8783C150.64 46.8783 150.64 46.8783 150.641 46.8783C150.642 46.8783 150.642 46.8783 150.643 46.8783C150.644 46.8783 150.645 46.8783 150.646 46.8783C150.646 46.8783 150.647 46.8783 150.648 46.8783C150.648 46.8783 150.648 46.8783 150.649 46.8783C150.65 46.8783 150.651 46.8783 150.652 46.8783C150.652 46.8783 150.653 46.8783 150.654 46.8783C150.655 46.8783 150.656 46.8783 150.656 46.8783C150.656 46.8783 150.657 46.8783 150.658 46.8783C150.659 46.8783 150.659 46.8783 150.66 46.8783C150.661 46.8783 150.662 46.8783 150.663 46.8783C150.663 46.8783 150.663 46.8783 150.664 46.8783C150.665 46.8783 150.665 46.8783 150.666 46.8783C150.667 46.8783 150.668 46.8783 150.669 46.8783C150.669 46.8783 150.67 46.8783 150.671 46.8783C150.671 46.8783 150.672 46.8783 150.672 46.8783C150.673 46.8783 150.674 46.8783 150.675 46.8783C150.676 46.8783 150.676 46.8783 150.677 46.8783C150.678 46.8783 150.679 46.8783 150.679 46.8783C150.679 46.8783 150.68 46.8783 150.681 46.8783C150.682 46.8783 150.683 46.8783 150.683 46.8783C150.684 46.8783 150.685 46.8783 150.686 46.8783C150.686 46.8783 150.687 46.8783 150.687 46.8783C150.688 46.8783 150.689 46.8783 150.689 46.8783C150.69 46.8783 150.691 46.8783 150.692 46.8783C150.693 46.8783 150.693 46.8783 150.694 46.8783C150.694 46.8783 150.695 46.8783 150.696 46.8783C150.696 46.8783 150.697 46.8783 150.698 46.8783C150.699 46.8783 150.7 46.8783 150.7 46.8783C150.701 46.8783 150.702 46.8783 150.702 46.8783C150.703 46.8783 150.703 46.8783 150.704 46.8783C150.705 46.8783 150.706 46.8783 150.707 46.8783C150.707 46.8783 150.708 46.8783 150.709 46.8783C150.71 46.8783 150.71 46.8783 150.71 46.8783C150.711 46.8783 150.712 46.8783 150.713 46.8783C150.714 46.8783 150.714 46.8783 150.715 46.8783C150.716 46.8783 150.717 46.8783 150.717 46.8783C150.717 46.8783 150.718 46.8783 150.719 46.8783C150.72 46.8783 150.721 46.8783 150.722 46.8783C150.722 46.8783 150.723 46.8783 150.724 46.8783C150.725 46.8783 150.725 46.8783 150.725 46.8783C150.726 46.8783 150.727 46.8783 150.728 46.8783C150.729 46.8783 150.729 46.8783 150.73 46.8783C150.731 46.8783 150.732 46.8783 150.733 46.8783C150.733 46.8783 150.733 46.8783 150.734 46.8783C150.735 46.8783 150.736 46.8783 150.736 46.8783C150.737 46.8783 150.738 46.8783 150.739 46.8783C150.74 46.8783 150.74 46.8783 150.74 46.8783C150.741 46.8783 150.742 46.8783 150.743 46.8783C150.743 46.8783 150.744 46.8783 150.745 46.8783C150.746 46.8783 150.747 46.8783 150.748 46.8783C150.748 46.8783 150.748 46.8783 150.749 46.8783C150.75 46.8783 150.751 46.8783 150.751 46.8783C150.752 46.8783 150.753 46.8783 150.754 46.8783C150.755 46.8783 150.755 46.8783 150.756 46.8783C150.756 46.8783 150.757 46.8783 150.758 46.8783C150.758 46.8783 150.759 46.8783 150.76 46.8783C150.761 46.8783 150.762 46.8783 150.763 46.8783C150.763 46.8783 150.763 46.8783 150.764 46.8783C150.765 46.8783 150.766 46.8783 150.766 46.8783C150.767 46.8783 150.768 46.8783 150.769 46.8783C150.77 46.8783 150.77 46.8783 150.771 46.8783C150.771 46.8783 150.772 46.8783 150.773 46.8783C150.774 46.8783 150.774 46.8783 150.775 46.8783C150.776 46.8783 150.777 46.8783 150.778 46.8783C150.778 46.8783 150.779 46.8783 150.779 46.8783C150.78 46.8783 150.781 46.8783 150.781 46.8783C150.782 46.8783 150.783 46.8783 150.784 46.8783C150.785 46.8783 150.786 46.8783 150.786 46.8783C150.786 46.8783 150.787 46.8783 150.788 46.8783C150.789 46.8783 150.789 46.8783 150.79 46.8783C150.791 46.8783 150.792 46.8783 150.793 46.8783C150.794 46.8783 150.794 46.8783 150.794 46.8783C150.795 46.8783 150.796 46.8783 150.797 46.8783C150.797 46.8783 150.798 46.8783 150.799 46.8783C150.8 46.8783 150.801 46.8783 150.802 46.8783C150.802 46.8783 150.802 46.8783 150.803 46.8783C150.804 46.8783 150.805 46.8783 150.805 46.8783C150.806 46.8783 150.807 46.8783 150.808 46.8783C150.809 46.8783 150.809 46.8783 150.809 46.8783C150.81 46.8783 150.811 46.8783 150.812 46.8783C150.813 46.8783 150.813 46.8783 150.814 46.8783C150.815 46.8783 150.816 46.8783 150.817 46.8783C150.817 46.8783 150.817 46.8783 150.818 46.8783C150.819 46.8783 150.82 46.8783 150.821 46.8783C150.821 46.8783 150.822 46.8783 150.823 46.8783C150.824 46.8783 150.825 46.8783 150.825 46.8783C150.825 46.8783 150.826 46.8783 150.827 46.8783C150.828 46.8783 150.829 46.8783 150.83 46.8783C150.83 46.8783 150.831 46.8783 150.832 46.8783C150.833 46.8783 150.833 46.8783 150.833 46.8783C150.834 46.8783 150.835 46.8783 150.836 46.8783C150.837 46.8783 150.838 46.8783 150.838 46.8783C150.839 46.8783 150.84 46.8783 150.84 46.8783C150.841 46.8783 150.842 46.8783 150.842 46.8783C150.843 46.8783 150.844 46.8783 150.845 46.8783C150.846 46.8783 150.846 46.8783 150.847 46.8783C150.848 46.8783 150.848 46.8783 150.849 46.8783C150.85 46.8783 150.85 46.8783 150.851 46.8783C150.852 46.8783 150.853 46.8783 150.854 46.8783C150.855 46.8783 150.855 46.8783 150.856 46.8783C150.856 46.8783 150.857 46.8783 150.858 46.8783C150.859 46.8783 150.859 46.8783 150.86 46.8783C150.861 46.8783 150.862 46.8783 150.863 46.8783C150.863 46.8783 150.863 46.8783 150.864 46.8783C150.865 46.8783 150.866 46.8783 150.867 46.8783C150.867 46.8783 150.868 46.8783 150.869 46.8783C150.87 46.8783 150.871 46.8783 150.871 46.8783C150.871 46.8783 150.872 46.8783 150.873 46.8783C150.874 46.8783 150.875 46.8783 150.876 46.8783C150.876 46.8783 150.877 46.8783 150.878 46.8783C150.879 46.8783 150.879 46.8783 150.88 46.8783C150.88 46.8783 150.881 46.8783 150.882 46.8783C150.883 46.8783 150.884 46.8783 150.885 46.8783C150.885 46.8783 150.886 46.8783 150.886 46.8783C150.887 46.8783 150.888 46.8783 150.889 46.8783C150.889 46.8783 150.89 46.8783 150.891 46.8783C150.892 46.8783 150.893 46.8783 150.894 46.8783C150.894 46.8783 150.894 46.8783 150.895 46.8783C150.896 46.8783 150.897 46.8783 150.898 46.8783C150.898 46.8783 150.899 46.8783 150.9 46.8783C150.901 46.8783 150.902 46.8783 150.902 46.8783C150.902 46.8783 150.903 46.8783 150.904 46.8783C150.905 46.8783 150.906 46.8783 150.907 46.8783C150.907 46.8783 150.908 46.8783 150.909 46.8783C150.909 46.8783 150.91 46.8783 150.911 46.8783C150.911 46.8783 150.912 46.8783 150.913 46.8783C150.914 46.8783 150.915 46.8783 150.916 46.8783C150.916 46.8783 150.917 46.8783 150.917 46.8783C150.918 46.8783 150.919 46.8783 150.92 46.8783C150.92 46.8783 150.921 46.8783 150.922 46.8783C150.923 46.8783 150.924 46.8783 150.925 46.8783C150.925 46.8783 150.925 46.8783 150.926 46.8783C150.927 46.8783 150.928 46.8783 150.929 46.8783C150.93 46.8783 150.93 46.8783 150.931 46.8783C150.932 46.8783 150.932 46.8783 150.933 46.8783C150.934 46.8783 150.934 46.8783 150.935 46.8783C150.936 46.8783 150.937 46.8783 150.938 46.8783C150.939 46.8783 150.939 46.8783 150.94 46.8783C150.94 46.8783 150.941 46.8783 150.942 46.8783C150.943 46.8783 150.943 46.8783 150.944 46.8783C150.945 46.8783 150.946 46.8783 150.947 46.8783C150.948 46.8783 150.948 46.8783 150.948 46.8783C150.949 46.8783 150.95 46.8783 150.951 46.8783C150.952 46.8783 150.953 46.8783 150.953 46.8783C150.954 46.8783 150.955 46.8783 150.955 46.8783C150.956 46.8783 150.957 46.8783 150.957 46.8783C150.958 46.8783 150.959 46.8783 150.96 46.8783C150.961 46.8783 150.962 46.8783 150.963 46.8783C150.963 46.8783 150.963 46.8783 150.964 46.8783C150.965 46.8783 150.966 46.8783 150.967 46.8783C150.967 46.8783 150.968 46.8783 150.969 46.8783C150.97 46.8783 150.971 46.8783 150.971 46.8783C150.971 46.8783 150.972 46.8783 150.973 46.8783C150.974 46.8783 150.975 46.8783 150.976 46.8783C150.977 46.8783 150.977 46.8783 150.978 46.8783C150.979 46.8783 150.979 46.8783 150.98 46.8783C150.981 46.8783 150.981 46.8783 150.982 46.8783C150.983 46.8783 150.984 46.8783 150.985 46.8783C150.986 46.8783 150.986 46.8783 150.986 46.8783C150.987 46.8783 150.988 46.8783 150.989 46.8783C150.99 46.8783 150.991 46.8783 150.991 46.8783C150.992 46.8783 150.993 46.8783 150.994 46.8783C150.994 46.8783 150.995 46.8783 150.996 46.8783C150.996 46.8783 150.997 46.8783 150.998 46.8783C150.999 46.8783 151 46.8783 151.001 46.8783C151.001 46.8783 151.002 46.8783 151.002 46.8783C151.003 46.8783 151.004 46.8783 151.005 46.8783C151.006 46.8783 151.006 46.8783 151.007 46.8783C151.008 46.8783 151.009 46.8783 151.009 46.8783C151.01 46.8783 151.011 46.8783 151.011 46.8783C151.012 46.8783 151.013 46.8783 151.014 46.8783C151.015 46.8783 151.016 46.8783 151.016 46.8783C151.017 46.8783 151.017 46.8783 151.018 46.8783C151.019 46.8783 151.02 46.8783 151.021 46.8783C151.021 46.8783 151.022 46.8783 151.023 46.8783C151.024 46.8783 151.025 46.8783 151.025 46.8783C151.026 46.8783 151.026 46.8783 151.027 46.8783C151.028 46.8783 151.029 46.8783 151.03 46.8783C151.031 46.8783 151.031 46.8783 151.032 46.8783C151.032 46.8783 151.033 46.8783 151.034 46.8783C151.035 46.8783 151.036 46.8783 151.036 46.8783C151.037 46.8783 151.038 46.8783 151.039 46.8783C151.04 46.8783 151.04 46.8783 151.041 46.8783C151.041 46.8783 151.042 46.8783 151.043 46.8783C151.044 46.8783 151.045 46.8783 151.046 46.8783C151.047 46.8783 151.047 46.8783 151.048 46.8783C151.048 46.8783 151.049 46.8783 151.05 46.8783C151.051 46.8783 151.052 46.8783 151.052 46.8783C151.053 46.8783 151.054 46.8783 151.055 46.8783C151.055 46.8783 151.056 46.8783 151.057 46.8783C151.057 46.8783 151.058 46.8783 151.059 46.8783C151.06 46.8783 151.061 46.8783 151.062 46.8783C151.063 46.8783 151.063 46.8783 151.063 46.8783C151.064 46.8783 151.065 46.8783 151.066 46.8783C151.067 46.8783 151.067 46.8783 151.068 46.8783C151.069 46.8783 151.07 46.8783 151.071 46.8783C151.071 46.8783 151.072 46.8783 151.072 46.8783C151.073 46.8783 151.074 46.8783 151.075 46.8783C151.076 46.8783 151.077 46.8783 151.078 46.8783C151.078 46.8783 151.078 46.8783 151.079 46.8783C151.08 46.8783 151.081 46.8783 151.082 46.8783C151.083 46.8783 151.083 46.8783 151.084 46.8783C151.085 46.8783 151.086 46.8783 151.086 46.8783C151.087 46.8783 151.088 46.8783 151.089 46.8783C151.089 46.8783 151.09 46.8783 151.091 46.8783C151.092 46.8783 151.093 46.8783 151.094 46.8783C151.094 46.8783 151.094 46.8783 151.095 46.8783C151.096 46.8783 151.097 46.8783 151.098 46.8783C151.099 46.8783 151.1 46.8783 151.1 46.8783C151.101 46.8783 151.101 46.8783 151.102 46.8783C151.103 46.8783 151.104 46.8783 151.105 46.8783C151.105 46.8783 151.106 46.8783 151.107 46.8783C151.108 46.8783 151.109 46.8783 151.109 46.8783C151.11 46.8783 151.11 46.8783 151.111 46.8783C151.112 46.8783 151.113 46.8783 151.114 46.8783C151.115 46.8783 151.116 46.8783 151.116 46.8783C151.117 46.8783 151.117 46.8783 151.118 46.8783C151.119 46.8783 151.12 46.8783 151.121 46.8783C151.122 46.8783 151.122 46.8783 151.123 46.8783C151.124 46.8783 151.125 46.8783 151.125 46.8783C151.126 46.8783 151.127 46.8783 151.127 46.8783C151.128 46.8783 151.129 46.8783 151.13 46.8783C151.131 46.8783 151.132 46.8783 151.132 46.8783C151.132 46.8783 151.133 46.8783 151.134 46.8783C151.135 46.8783 151.136 46.8783 151.137 46.8783C151.138 46.8783 151.139 46.8783 151.139 46.8783C151.14 46.8783 151.14 46.8783 151.141 46.8783C151.142 46.8783 151.143 46.8783 151.144 46.8783C151.144 46.8783 151.145 46.8783 151.146 46.8783C151.147 46.8783 151.148 46.8783 151.148 46.8783C151.149 46.8783 151.149 46.8783 151.15 46.8783C151.151 46.8783 151.152 46.8783 151.153 46.8783C151.154 46.8783 151.155 46.8783 151.155 46.8783C151.155 46.8783 151.156 46.8783 151.157 46.8783C151.158 46.8783 151.159 46.8783 151.16 46.8783C151.161 46.8783 151.161 46.8783 151.162 46.8783C151.163 46.8783 151.163 46.8783 151.164 46.8783C151.165 46.8783 151.166 46.8783 151.167 46.8783C151.167 46.8783 151.168 46.8783 151.169 46.8783C151.17 46.8783 151.171 46.8783 151.171 46.8783C151.172 46.8783 151.172 46.8783 151.173 46.8783C151.174 46.8783 151.175 46.8783 151.176 46.8783C151.177 46.8783 151.178 46.8783 151.178 46.8783C151.178 46.8783 151.179 46.8783 151.18 46.8783C151.181 46.8783 151.182 46.8783 151.183 46.8783C151.184 46.8783 151.185 46.8783 151.185 46.8783C151.186 46.8783 151.186 46.8783 151.187 46.8783C151.188 46.8783 151.189 46.8783 151.19 46.8783C151.19 46.8783 151.191 46.8783 151.192 46.8783C151.193 46.8783 151.194 46.8783 151.194 46.8783C151.195 46.8783 151.196 46.8783 151.196 46.8783C151.197 46.8783 151.198 46.8783 151.199 46.8783C151.2 46.8783 151.201 46.8783 151.201 46.8783C151.202 46.8783 151.202 46.8783 151.203 46.8783C151.204 46.8783 151.205 46.8783 151.206 46.8783C151.207 46.8783 151.208 46.8783 151.208 46.8783C151.209 46.8783 151.209 46.8783 151.21 46.8783C151.211 46.8783 151.212 46.8783 151.213 46.8783C151.214 46.8783 151.214 46.8783 151.215 46.8783C151.216 46.8783 151.217 46.8783 151.217 46.8783C151.218 46.8783 151.219 46.8783 151.22 46.8783C151.22 46.8783 151.221 46.8783 151.222 46.8783C151.223 46.8783 151.224 46.8783 151.224 46.8783C151.225 46.8783 151.226 46.8783 151.226 46.8783C151.227 46.8783 151.228 46.8783 151.229 46.8783C151.23 46.8783 151.231 46.8783 151.232 46.8783C151.232 46.8783 151.232 46.8783 151.233 46.8783C151.234 46.8783 151.235 46.8783 151.236 46.8783C151.237 46.8783 151.238 46.8783 151.238 46.8783C151.239 46.8783 151.24 46.8783 151.24 46.8783C151.241 46.8783 151.242 46.8783 151.243 46.8783C151.244 46.8783 151.244 46.8783 151.245 46.8783C151.246 46.8783 151.247 46.8783 151.247 46.8783C151.248 46.8783 151.249 46.8783 151.25 46.8783C151.25 46.8783 151.251 46.8783 151.252 46.8783C151.253 46.8783 151.254 46.8783 151.255 46.8783C151.255 46.8783 151.256 46.8783 151.256 46.8783C151.257 46.8783 151.258 46.8783 151.259 46.8783C151.26 46.8783 151.261 46.8783 151.262 46.8783C151.263 46.8783 151.263 46.8783 151.263 46.8783C151.264 46.8783 151.265 46.8783 151.266 46.8783C151.267 46.8783 151.268 46.8783 151.269 46.8783C151.269 46.8783 151.27 46.8783 151.27 46.8783C151.271 46.8783 151.272 46.8783 151.273 46.8783C151.274 46.8783 151.275 46.8783 151.276 46.8783C151.276 46.8783 151.277 46.8783 151.278 46.8783C151.278 46.8783 151.279 46.8783 151.28 46.8783C151.281 46.8783 151.282 46.8783 151.282 46.8783C151.283 46.8783 151.284 46.8783 151.285 46.8783C151.286 46.8783 151.286 46.8783 151.287 46.8783C151.288 46.8783 151.288 46.8783 151.289 46.8783C151.29 46.8783 151.291 46.8783 151.292 46.8783C151.293 46.8783 151.294 46.8783 151.294 46.8783C151.294 46.8783 151.295 46.8783 151.296 46.8783C151.297 46.8783 151.298 46.8783 151.299 46.8783C151.3 46.8783 151.301 46.8783 151.301 46.8783C151.301 46.8783 151.302 46.8783 151.303 46.8783C151.304 46.8783 151.305 46.8783 151.306 46.8783C151.307 46.8783 151.307 46.8783 151.308 46.8783C151.309 46.8783 151.309 46.8783 151.31 46.8783C151.311 46.8783 151.312 46.8783 151.313 46.8783C151.314 46.8783 151.314 46.8783 151.315 46.8783C151.316 46.8783 151.317 46.8783 151.317 46.8783C151.318 46.8783 151.319 46.8783 151.32 46.8783C151.32 46.8783 151.321 46.8783 151.322 46.8783C151.323 46.8783 151.324 46.8783 151.324 46.8783C151.325 46.8783 151.326 46.8783 151.326 46.8783C151.327 46.8783 151.328 46.8783 151.329 46.8783C151.33 46.8783 151.331 46.8783 151.332 46.8783C151.332 46.8783 151.333 46.8783 151.333 46.8783C151.334 46.8783 151.335 46.8783 151.336 46.8783C151.337 46.8783 151.338 46.8783 151.339 46.8783C151.34 46.8783 151.34 46.8783 151.34 46.8783C151.341 46.8783 151.342 46.8783 151.343 46.8783C151.344 46.8783 151.345 46.8783 151.346 46.8783C151.347 46.8783 151.347 46.8783 151.347 46.8783C151.348 46.8783 151.349 46.8783 151.35 46.8783C151.351 46.8783 151.352 46.8783 151.353 46.8783C151.353 46.8783 151.354 46.8783 151.355 46.8783C151.355 46.8783 151.356 46.8783 151.357 46.8783C151.358 46.8783 151.359 46.8783 151.36 46.8783C151.36 46.8783 151.361 46.8783 151.362 46.8783C151.363 46.8783 151.363 46.8783 151.364 46.8783C151.365 46.8783 151.366 46.8783 151.366 46.8783C151.367 46.8783 151.368 46.8783 151.369 46.8783C151.37 46.8783 151.37 46.8783 151.371 46.8783C151.372 46.8783 151.373 46.8783 151.373 46.8783C151.374 46.8783 151.375 46.8783 151.376 46.8783C151.377 46.8783 151.378 46.8783 151.378 46.8783C151.379 46.8783 151.379 46.8783 151.38 46.8783C151.381 46.8783 151.382 46.8783 151.383 46.8783C151.384 46.8783 151.385 46.8783 151.386 46.8783C151.386 46.8783 151.386 46.8783 151.387 46.8783C151.388 46.8783 151.389 46.8783 151.39 46.8783C151.391 46.8783 151.392 46.8783 151.393 46.8783C151.393 46.8783 151.393 46.8783 151.394 46.8783C151.395 46.8783 151.396 46.8783 151.397 46.8783C151.398 46.8783 151.399 46.8783 151.4 46.8783C151.4 46.8783 151.401 46.8783 151.401 46.8783C151.402 46.8783 151.403 46.8783 151.404 46.8783C151.405 46.8783 151.406 46.8783 151.407 46.8783C151.407 46.8783 151.408 46.8783 151.409 46.8783C151.409 46.8783 151.41 46.8783 151.411 46.8783C151.412 46.8783 151.413 46.8783 151.414 46.8783C151.414 46.8783 151.415 46.8783 151.416 46.8783C151.416 46.8783 151.417 46.8783 151.418 46.8783C151.419 46.8783 151.42 46.8783 151.421 46.8783C151.421 46.8783 151.422 46.8783 151.423 46.8783C151.424 46.8783 151.424 46.8783 151.425 46.8783C151.426 46.8783 151.427 46.8783 151.428 46.8783C151.428 46.8783 151.429 46.8783 151.43 46.8783C151.431 46.8783 151.432 46.8783 151.432 46.8783C151.433 46.8783 151.434 46.8783 151.434 46.8783C151.435 46.8783 151.436 46.8783 151.437 46.8783C151.438 46.8783 151.439 46.8783 151.44 46.8783C151.44 46.8783 151.441 46.8783 151.441 46.8783C151.442 46.8783 151.443 46.8783 151.444 46.8783C151.445 46.8783 151.446 46.8783 151.447 46.8783C151.447 46.8783 151.448 46.8783 151.448 46.8783C151.449 46.8783 151.45 46.8783 151.451 46.8783C151.452 46.8783 151.453 46.8783 151.454 46.8783C151.455 46.8783 151.455 46.8783 151.455 46.8783C151.456 46.8783 151.457 46.8783 151.458 46.8783C151.459 46.8783 151.46 46.8783 151.461 46.8783C151.462 46.8783 151.463 46.8783 151.463 46.8783C151.463 46.8783 151.464 46.8783 151.465 46.8783C151.466 46.8783 151.467 46.8783 151.468 46.8783C151.469 46.8783 151.47 46.8783 151.47 46.8783C151.47 46.8783 151.471 46.8783 151.472 46.8783C151.473 46.8783 151.474 46.8783 151.475 46.8783C151.476 46.8783 151.477 46.8783 151.477 46.8783C151.478 46.8783 151.478 46.8783 151.479 46.8783C151.48 46.8783 151.481 46.8783 151.482 46.8783C151.483 46.8783 151.484 46.8783 151.484 46.8783C151.485 46.8783 151.486 46.8783 151.486 46.8783C151.487 46.8783 151.488 46.8783 151.489 46.8783C151.49 46.8783 151.491 46.8783 151.491 46.8783C151.492 46.8783 151.493 46.8783 151.493 46.8783C151.494 46.8783 151.495 46.8783 151.496 46.8783C151.497 46.8783 151.498 46.8783 151.498 46.8783C151.499 46.8783 151.5 46.8783 151.501 46.8783C151.501 46.8783 151.502 46.8783 151.503 46.8783C151.504 46.8783 151.505 46.8783 151.505 46.8783C151.506 46.8783 151.507 46.8783 151.508 46.8783C151.509 46.8783 151.509 46.8783 151.51 46.8783C151.511 46.8783 151.512 46.8783 151.512 46.8783C151.513 46.8783 151.514 46.8783 151.515 46.8783C151.516 46.8783 151.516 46.8783 151.517 46.8783C151.518 46.8783 151.519 46.8783 151.52 46.8783C151.52 46.8783 151.521 46.8783 151.522 46.8783C151.523 46.8783 151.524 46.8783 151.524 46.8783C151.525 46.8783 151.526 46.8783 151.527 46.8783C151.527 46.8783 151.528 46.8783 151.529 46.8783C151.53 46.8783 151.531 46.8783 151.532 46.8783C151.532 46.8783 151.533 46.8783 151.534 46.8783C151.534 46.8783 151.535 46.8783 151.536 46.8783C151.537 46.8783 151.538 46.8783 151.539 46.8783C151.539 46.8783 151.54 46.8783 151.541 46.8783C151.541 46.8783 151.542 46.8783 151.543 46.8783C151.544 46.8783 151.545 46.8783 151.546 46.8783C151.547 46.8783 151.547 46.8783 151.548 46.8783C151.548 46.8783 151.549 46.8783 151.55 46.8783C151.551 46.8783 151.552 46.8783 151.553 46.8783C151.554 46.8783 151.555 46.8783 151.555 46.8783C151.556 46.8783 151.556 46.8783 151.557 46.8783C151.558 46.8783 151.559 46.8783 151.56 46.8783C151.561 46.8783 151.562 46.8783 151.562 46.8783C151.563 46.8783 151.563 46.8783 151.564 46.8783C151.565 46.8783 151.566 46.8783 151.567 46.8783C151.568 46.8783 151.569 46.8783 151.57 46.8783C151.57 46.8783 151.57 46.8783 151.571 46.8783C151.572 46.8783 151.573 46.8783 151.574 46.8783C151.575 46.8783 151.576 46.8783 151.577 46.8783C151.578 46.8783 151.578 46.8783 151.578 46.8783C151.579 46.8783 151.58 46.8783 151.581 46.8783C151.582 46.8783 151.583 46.8783 151.584 46.8783C151.585 46.8783 151.586 46.8783 151.586 46.8783C151.586 46.8783 151.587 46.8783 151.588 46.8783C151.589 46.8783 151.59 46.8783 151.591 46.8783C151.592 46.8783 151.593 46.8783 151.593 46.8783C151.593 46.8783 151.594 46.8783 151.595 46.8783C151.596 46.8783 151.597 46.8783 151.598 46.8783C151.599 46.8783 151.6 46.8783 151.601 46.8783C151.601 46.8783 151.601 46.8783 151.602 46.8783C151.603 46.8783 151.604 46.8783 151.605 46.8783C151.606 46.8783 151.607 46.8783 151.608 46.8783C151.608 46.8783 151.609 46.8783 151.609 46.8783C151.61 46.8783 151.611 46.8783 151.612 46.8783C151.613 46.8783 151.614 46.8783 151.615 46.8783C151.615 46.8783 151.616 46.8783 151.616 46.8783C151.617 46.8783 151.618 46.8783 151.619 46.8783C151.62 46.8783 151.621 46.8783 151.622 46.8783C151.623 46.8783 151.623 46.8783 151.624 46.8783C151.624 46.8783 151.625 46.8783 151.626 46.8783C151.627 46.8783 151.628 46.8783 151.629 46.8783C151.63 46.8783 151.63 46.8783 151.631 46.8783C151.632 46.8783 151.632 46.8783 151.633 46.8783C151.634 46.8783 151.635 46.8783 151.636 46.8783C151.637 46.8783 151.638 46.8783 151.638 46.8783C151.639 46.8783 151.639 46.8783 151.64 46.8783C151.641 46.8783 151.642 46.8783 151.643 46.8783C151.644 46.8783 151.645 46.8783 151.645 46.8783C151.646 46.8783 151.647 46.8783 151.647 46.8783C151.648 46.8783 151.649 46.8783 151.65 46.8783C151.651 46.8783 151.652 46.8783 151.653 46.8783C151.653 46.8783 151.654 46.8783 151.655 46.8783C151.655 46.8783 151.656 46.8783 151.657 46.8783C151.658 46.8783 151.659 46.8783 151.66 46.8783C151.66 46.8783 151.661 46.8783 151.662 46.8783C151.662 46.8783 151.663 46.8783 151.664 46.8783C151.665 46.8783 151.666 46.8783 151.667 46.8783C151.668 46.8783 151.668 46.8783 151.669 46.8783C151.67 46.8783 151.67 46.8783 151.671 46.8783C151.672 46.8783 151.673 46.8783 151.674 46.8783C151.675 46.8783 151.675 46.8783 151.676 46.8783C151.677 46.8783 151.678 46.8783 151.678 46.8783C151.679 46.8783 151.68 46.8783 151.681 46.8783C151.682 46.8783 151.683 46.8783 151.683 46.8783C151.684 46.8783 151.685 46.8783 151.685 46.8783C151.686 46.8783 151.687 46.8783 151.688 46.8783C151.689 46.8783 151.69 46.8783 151.69 46.8783C151.691 46.8783 151.692 46.8783 151.693 46.8783C151.693 46.8783 151.694 46.8783 151.695 46.8783C151.696 46.8783 151.697 46.8783 151.698 46.8783C151.698 46.8783 151.699 46.8783 151.7 46.8783C151.701 46.8783 151.701 46.8783 151.702 46.8783C151.703 46.8783 151.704 46.8783 151.705 46.8783C151.705 46.8783 151.706 46.8783 151.707 46.8783C151.708 46.8783 151.708 46.8783 151.709 46.8783C151.71 46.8783 151.711 46.8783 151.712 46.8783C151.713 46.8783 151.713 46.8783 151.714 46.8783C151.715 46.8783 151.716 46.8783 151.716 46.8783C151.717 46.8783 151.718 46.8783 151.719 46.8783C151.72 46.8783 151.72 46.8783 151.721 46.8783C151.722 46.8783 151.723 46.8783 151.724 46.8783C151.724 46.8783 151.725 46.8783 151.726 46.8783C151.727 46.8783 151.728 46.8783 151.728 46.8783C151.729 46.8783 151.73 46.8783 151.731 46.8783C151.732 46.8783 151.732 46.8783 151.733 46.8783C151.734 46.8783 151.735 46.8783 151.735 46.8783C151.736 46.8783 151.737 46.8783 151.738 46.8783C151.739 46.8783 151.739 46.8783 151.74 46.8783C151.741 46.8783 151.742 46.8783 151.743 46.8783C151.743 46.8783 151.744 46.8783 151.745 46.8783C151.746 46.8783 151.747 46.8783 151.747 46.8783C151.748 46.8783 151.749 46.8783 151.75 46.8783C151.75 46.8783 151.751 46.8783 151.752 46.8783V46.8648V46.8514C151.751 46.8514 151.75 46.8514 151.75 46.8514C151.749 46.8514 151.748 46.8514 151.747 46.8514C151.747 46.8514 151.746 46.8514 151.745 46.8514C151.744 46.8514 151.743 46.8514 151.743 46.8514C151.742 46.8514 151.741 46.8514 151.74 46.8514C151.739 46.8514 151.739 46.8514 151.738 46.8514C151.737 46.8514 151.736 46.8514 151.735 46.8514C151.735 46.8514 151.734 46.8514 151.733 46.8514C151.732 46.8514 151.732 46.8514 151.731 46.8514C151.73 46.8514 151.729 46.8514 151.728 46.8514C151.728 46.8514 151.727 46.8514 151.726 46.8514C151.725 46.8514 151.724 46.8514 151.724 46.8514C151.723 46.8514 151.722 46.8514 151.721 46.8514C151.72 46.8514 151.72 46.8514 151.719 46.8514C151.718 46.8514 151.717 46.8514 151.716 46.8514C151.716 46.8514 151.715 46.8514 151.714 46.8514C151.713 46.8514 151.713 46.8514 151.712 46.8514C151.711 46.8514 151.71 46.8514 151.709 46.8514C151.708 46.8514 151.708 46.8514 151.707 46.8514C151.706 46.8514 151.705 46.8514 151.705 46.8514C151.704 46.8514 151.703 46.8514 151.702 46.8514C151.701 46.8514 151.701 46.8514 151.7 46.8514C151.699 46.8514 151.698 46.8514 151.698 46.8514C151.697 46.8514 151.696 46.8514 151.695 46.8514C151.694 46.8514 151.693 46.8514 151.693 46.8514C151.692 46.8514 151.691 46.8514 151.69 46.8514C151.69 46.8514 151.689 46.8514 151.688 46.8514C151.687 46.8514 151.686 46.8514 151.685 46.8514C151.685 46.8514 151.684 46.8514 151.683 46.8514C151.683 46.8514 151.682 46.8514 151.681 46.8514C151.68 46.8514 151.679 46.8514 151.678 46.8514C151.678 46.8514 151.677 46.8514 151.676 46.8514C151.675 46.8514 151.675 46.8514 151.674 46.8514C151.673 46.8514 151.672 46.8514 151.671 46.8514C151.67 46.8514 151.67 46.8514 151.669 46.8514C151.668 46.8514 151.668 46.8514 151.667 46.8514C151.666 46.8514 151.665 46.8514 151.664 46.8514C151.663 46.8514 151.662 46.8514 151.662 46.8514C151.661 46.8514 151.66 46.8514 151.66 46.8514C151.659 46.8514 151.658 46.8514 151.657 46.8514C151.656 46.8514 151.655 46.8514 151.655 46.8514C151.654 46.8514 151.653 46.8514 151.653 46.8514C151.652 46.8514 151.651 46.8514 151.65 46.8514C151.649 46.8514 151.648 46.8514 151.647 46.8514C151.647 46.8514 151.646 46.8514 151.645 46.8514C151.645 46.8514 151.644 46.8514 151.643 46.8514C151.642 46.8514 151.641 46.8514 151.64 46.8514C151.639 46.8514 151.639 46.8514 151.638 46.8514C151.638 46.8514 151.637 46.8514 151.636 46.8514C151.635 46.8514 151.634 46.8514 151.633 46.8514C151.632 46.8514 151.632 46.8514 151.631 46.8514C151.63 46.8514 151.63 46.8514 151.629 46.8514C151.628 46.8514 151.627 46.8514 151.626 46.8514C151.625 46.8514 151.624 46.8514 151.624 46.8514C151.623 46.8514 151.623 46.8514 151.622 46.8514C151.621 46.8514 151.62 46.8514 151.619 46.8514C151.618 46.8514 151.617 46.8514 151.616 46.8514C151.616 46.8514 151.615 46.8514 151.615 46.8514C151.614 46.8514 151.613 46.8514 151.612 46.8514C151.611 46.8514 151.61 46.8514 151.609 46.8514C151.609 46.8514 151.608 46.8514 151.608 46.8514C151.607 46.8514 151.606 46.8514 151.605 46.8514C151.604 46.8514 151.603 46.8514 151.602 46.8514C151.601 46.8514 151.601 46.8514 151.601 46.8514C151.6 46.8514 151.599 46.8514 151.598 46.8514C151.597 46.8514 151.596 46.8514 151.595 46.8514C151.594 46.8514 151.593 46.8514 151.593 46.8514C151.593 46.8514 151.592 46.8514 151.591 46.8514C151.59 46.8514 151.589 46.8514 151.588 46.8514C151.587 46.8514 151.586 46.8514 151.586 46.8514C151.586 46.8514 151.585 46.8514 151.584 46.8514C151.583 46.8514 151.582 46.8514 151.581 46.8514C151.58 46.8514 151.579 46.8514 151.578 46.8514C151.578 46.8514 151.578 46.8514 151.577 46.8514C151.576 46.8514 151.575 46.8514 151.574 46.8514C151.573 46.8514 151.572 46.8514 151.571 46.8514C151.57 46.8514 151.57 46.8514 151.57 46.8514C151.569 46.8514 151.568 46.8514 151.567 46.8514C151.566 46.8514 151.565 46.8514 151.564 46.8514C151.563 46.8514 151.563 46.8514 151.562 46.8514C151.562 46.8514 151.561 46.8514 151.56 46.8514C151.559 46.8514 151.558 46.8514 151.557 46.8514C151.556 46.8514 151.556 46.8514 151.555 46.8514C151.555 46.8514 151.554 46.8514 151.553 46.8514C151.552 46.8514 151.551 46.8514 151.55 46.8514C151.549 46.8514 151.548 46.8514 151.548 46.8514C151.547 46.8514 151.547 46.8514 151.546 46.8514C151.545 46.8514 151.544 46.8514 151.543 46.8514C151.542 46.8514 151.541 46.8514 151.541 46.8514C151.54 46.8514 151.539 46.8514 151.539 46.8514C151.538 46.8514 151.537 46.8514 151.536 46.8514C151.535 46.8514 151.534 46.8514 151.534 46.8514C151.533 46.8514 151.532 46.8514 151.532 46.8514C151.531 46.8514 151.53 46.8514 151.529 46.8514C151.528 46.8514 151.527 46.8514 151.527 46.8514C151.526 46.8514 151.525 46.8514 151.524 46.8514C151.524 46.8514 151.523 46.8514 151.522 46.8514C151.521 46.8514 151.52 46.8514 151.52 46.8514C151.519 46.8514 151.518 46.8514 151.517 46.8514C151.516 46.8514 151.516 46.8514 151.515 46.8514C151.514 46.8514 151.513 46.8514 151.512 46.8514C151.512 46.8514 151.511 46.8514 151.51 46.8514C151.509 46.8514 151.509 46.8514 151.508 46.8514C151.507 46.8514 151.506 46.8514 151.505 46.8514C151.505 46.8514 151.504 46.8514 151.503 46.8514C151.502 46.8514 151.501 46.8514 151.501 46.8514C151.5 46.8514 151.499 46.8514 151.498 46.8514C151.498 46.8514 151.497 46.8514 151.496 46.8514C151.495 46.8514 151.494 46.8514 151.493 46.8514C151.493 46.8514 151.492 46.8514 151.491 46.8514C151.491 46.8514 151.49 46.8514 151.489 46.8514C151.488 46.8514 151.487 46.8514 151.486 46.8514C151.486 46.8514 151.485 46.8514 151.484 46.8514C151.484 46.8514 151.483 46.8514 151.482 46.8514C151.481 46.8514 151.48 46.8514 151.479 46.8514C151.478 46.8514 151.478 46.8514 151.477 46.8514C151.477 46.8514 151.476 46.8514 151.475 46.8514C151.474 46.8514 151.473 46.8514 151.472 46.8514C151.471 46.8514 151.47 46.8514 151.47 46.8514C151.47 46.8514 151.469 46.8514 151.468 46.8514C151.467 46.8514 151.466 46.8514 151.465 46.8514C151.464 46.8514 151.463 46.8514 151.463 46.8514C151.463 46.8514 151.462 46.8514 151.461 46.8514C151.46 46.8514 151.459 46.8514 151.458 46.8514C151.457 46.8514 151.456 46.8514 151.455 46.8514C151.455 46.8514 151.455 46.8514 151.454 46.8514C151.453 46.8514 151.452 46.8514 151.451 46.8514C151.45 46.8514 151.449 46.8514 151.448 46.8514C151.448 46.8514 151.447 46.8514 151.447 46.8514C151.446 46.8514 151.445 46.8514 151.444 46.8514C151.443 46.8514 151.442 46.8514 151.441 46.8514C151.441 46.8514 151.44 46.8514 151.44 46.8514C151.439 46.8514 151.438 46.8514 151.437 46.8514C151.436 46.8514 151.435 46.8514 151.434 46.8514C151.434 46.8514 151.433 46.8514 151.432 46.8514C151.432 46.8514 151.431 46.8514 151.43 46.8514C151.429 46.8514 151.428 46.8514 151.428 46.8514C151.427 46.8514 151.426 46.8514 151.425 46.8514C151.424 46.8514 151.424 46.8514 151.423 46.8514C151.422 46.8514 151.421 46.8514 151.421 46.8514C151.42 46.8514 151.419 46.8514 151.418 46.8514C151.417 46.8514 151.416 46.8514 151.416 46.8514C151.415 46.8514 151.414 46.8514 151.414 46.8514C151.413 46.8514 151.412 46.8514 151.411 46.8514C151.41 46.8514 151.409 46.8514 151.409 46.8514C151.408 46.8514 151.407 46.8514 151.407 46.8514C151.406 46.8514 151.405 46.8514 151.404 46.8514C151.403 46.8514 151.402 46.8514 151.401 46.8514C151.401 46.8514 151.4 46.8514 151.4 46.8514C151.399 46.8514 151.398 46.8514 151.397 46.8514C151.396 46.8514 151.395 46.8514 151.394 46.8514C151.393 46.8514 151.393 46.8514 151.393 46.8514C151.392 46.8514 151.391 46.8514 151.39 46.8514C151.389 46.8514 151.388 46.8514 151.387 46.8514C151.386 46.8514 151.386 46.8514 151.386 46.8514C151.385 46.8514 151.384 46.8514 151.383 46.8514C151.382 46.8514 151.381 46.8514 151.38 46.8514C151.379 46.8514 151.379 46.8514 151.378 46.8514C151.378 46.8514 151.377 46.8514 151.376 46.8514C151.375 46.8514 151.374 46.8514 151.373 46.8514C151.373 46.8514 151.372 46.8514 151.371 46.8514C151.37 46.8514 151.37 46.8514 151.369 46.8514C151.368 46.8514 151.367 46.8514 151.366 46.8514C151.366 46.8514 151.365 46.8514 151.364 46.8514C151.363 46.8514 151.363 46.8514 151.362 46.8514C151.361 46.8514 151.36 46.8514 151.36 46.8514C151.359 46.8514 151.358 46.8514 151.357 46.8514C151.356 46.8514 151.355 46.8514 151.355 46.8514C151.354 46.8514 151.353 46.8514 151.353 46.8514C151.352 46.8514 151.351 46.8514 151.35 46.8514C151.349 46.8514 151.348 46.8514 151.347 46.8514C151.347 46.8514 151.347 46.8514 151.346 46.8514C151.345 46.8514 151.344 46.8514 151.343 46.8514C151.342 46.8514 151.341 46.8514 151.34 46.8514C151.34 46.8514 151.34 46.8514 151.339 46.8514C151.338 46.8514 151.337 46.8514 151.336 46.8514C151.335 46.8514 151.334 46.8514 151.333 46.8514C151.333 46.8514 151.332 46.8514 151.332 46.8514C151.331 46.8514 151.33 46.8514 151.329 46.8514C151.328 46.8514 151.327 46.8514 151.326 46.8514C151.326 46.8514 151.325 46.8514 151.324 46.8514C151.324 46.8514 151.323 46.8514 151.322 46.8514C151.321 46.8514 151.32 46.8514 151.32 46.8514C151.319 46.8514 151.318 46.8514 151.317 46.8514C151.317 46.8514 151.316 46.8514 151.315 46.8514C151.314 46.8514 151.314 46.8514 151.313 46.8514C151.312 46.8514 151.311 46.8514 151.31 46.8514C151.309 46.8514 151.309 46.8514 151.308 46.8514C151.307 46.8514 151.307 46.8514 151.306 46.8514C151.305 46.8514 151.304 46.8514 151.303 46.8514C151.302 46.8514 151.301 46.8514 151.301 46.8514C151.301 46.8514 151.3 46.8514 151.299 46.8514C151.298 46.8514 151.297 46.8514 151.296 46.8514C151.295 46.8514 151.294 46.8514 151.294 46.8514C151.294 46.8514 151.293 46.8514 151.292 46.8514C151.291 46.8514 151.29 46.8514 151.289 46.8514C151.288 46.8514 151.288 46.8514 151.287 46.8514C151.286 46.8514 151.286 46.8514 151.285 46.8514C151.284 46.8514 151.283 46.8514 151.282 46.8514C151.282 46.8514 151.281 46.8514 151.28 46.8514C151.279 46.8514 151.278 46.8514 151.278 46.8514C151.277 46.8514 151.276 46.8514 151.276 46.8514C151.275 46.8514 151.274 46.8514 151.273 46.8514C151.272 46.8514 151.271 46.8514 151.27 46.8514C151.27 46.8514 151.269 46.8514 151.269 46.8514C151.268 46.8514 151.267 46.8514 151.266 46.8514C151.265 46.8514 151.264 46.8514 151.263 46.8514C151.263 46.8514 151.263 46.8514 151.262 46.8514C151.261 46.8514 151.26 46.8514 151.259 46.8514C151.258 46.8514 151.257 46.8514 151.256 46.8514C151.256 46.8514 151.255 46.8514 151.255 46.8514C151.254 46.8514 151.253 46.8514 151.252 46.8514C151.251 46.8514 151.25 46.8514 151.25 46.8514C151.249 46.8514 151.248 46.8514 151.247 46.8514C151.247 46.8514 151.246 46.8514 151.245 46.8514C151.244 46.8514 151.244 46.8514 151.243 46.8514C151.242 46.8514 151.241 46.8514 151.24 46.8514C151.24 46.8514 151.239 46.8514 151.238 46.8514C151.238 46.8514 151.237 46.8514 151.236 46.8514C151.235 46.8514 151.234 46.8514 151.233 46.8514C151.232 46.8514 151.232 46.8514 151.232 46.8514C151.231 46.8514 151.23 46.8514 151.229 46.8514C151.228 46.8514 151.227 46.8514 151.226 46.8514C151.226 46.8514 151.225 46.8514 151.224 46.8514C151.224 46.8514 151.223 46.8514 151.222 46.8514C151.221 46.8514 151.22 46.8514 151.22 46.8514C151.219 46.8514 151.218 46.8514 151.217 46.8514C151.217 46.8514 151.216 46.8514 151.215 46.8514C151.214 46.8514 151.214 46.8514 151.213 46.8514C151.212 46.8514 151.211 46.8514 151.21 46.8514C151.209 46.8514 151.209 46.8514 151.208 46.8514C151.208 46.8514 151.207 46.8514 151.206 46.8514C151.205 46.8514 151.204 46.8514 151.203 46.8514C151.202 46.8514 151.202 46.8514 151.201 46.8514C151.201 46.8514 151.2 46.8514 151.199 46.8514C151.198 46.8514 151.197 46.8514 151.196 46.8514C151.196 46.8514 151.195 46.8514 151.194 46.8514C151.194 46.8514 151.193 46.8514 151.192 46.8514C151.191 46.8514 151.19 46.8514 151.19 46.8514C151.189 46.8514 151.188 46.8514 151.187 46.8514C151.186 46.8514 151.186 46.8514 151.185 46.8514C151.185 46.8514 151.184 46.8514 151.183 46.8514C151.182 46.8514 151.181 46.8514 151.18 46.8514C151.179 46.8514 151.178 46.8514 151.178 46.8514C151.178 46.8514 151.177 46.8514 151.176 46.8514C151.175 46.8514 151.174 46.8514 151.173 46.8514C151.172 46.8514 151.172 46.8514 151.171 46.8514C151.171 46.8514 151.17 46.8514 151.169 46.8514C151.168 46.8514 151.167 46.8514 151.167 46.8514C151.166 46.8514 151.165 46.8514 151.164 46.8514C151.163 46.8514 151.163 46.8514 151.162 46.8514C151.161 46.8514 151.161 46.8514 151.16 46.8514C151.159 46.8514 151.158 46.8514 151.157 46.8514C151.156 46.8514 151.155 46.8514 151.155 46.8514C151.155 46.8514 151.154 46.8514 151.153 46.8514C151.152 46.8514 151.151 46.8514 151.15 46.8514C151.149 46.8514 151.149 46.8514 151.148 46.8514C151.148 46.8514 151.147 46.8514 151.146 46.8514C151.145 46.8514 151.144 46.8514 151.144 46.8514C151.143 46.8514 151.142 46.8514 151.141 46.8514C151.14 46.8514 151.14 46.8514 151.139 46.8514C151.139 46.8514 151.138 46.8514 151.137 46.8514C151.136 46.8514 151.135 46.8514 151.134 46.8514C151.133 46.8514 151.132 46.8514 151.132 46.8514C151.132 46.8514 151.131 46.8514 151.13 46.8514C151.129 46.8514 151.128 46.8514 151.127 46.8514C151.127 46.8514 151.126 46.8514 151.125 46.8514C151.125 46.8514 151.124 46.8514 151.123 46.8514C151.122 46.8514 151.122 46.8514 151.121 46.8514C151.12 46.8514 151.119 46.8514 151.118 46.8514C151.117 46.8514 151.117 46.8514 151.116 46.8514C151.116 46.8514 151.115 46.8514 151.114 46.8514C151.113 46.8514 151.112 46.8514 151.111 46.8514C151.11 46.8514 151.11 46.8514 151.109 46.8514C151.109 46.8514 151.108 46.8514 151.107 46.8514C151.106 46.8514 151.105 46.8514 151.105 46.8514C151.104 46.8514 151.103 46.8514 151.102 46.8514C151.101 46.8514 151.101 46.8514 151.1 46.8514C151.1 46.8514 151.099 46.8514 151.098 46.8514C151.097 46.8514 151.096 46.8514 151.095 46.8514C151.094 46.8514 151.094 46.8514 151.094 46.8514C151.093 46.8514 151.092 46.8514 151.091 46.8514C151.09 46.8514 151.089 46.8514 151.089 46.8514C151.088 46.8514 151.087 46.8514 151.086 46.8514C151.086 46.8514 151.085 46.8514 151.084 46.8514C151.083 46.8514 151.083 46.8514 151.082 46.8514C151.081 46.8514 151.08 46.8514 151.079 46.8514C151.078 46.8514 151.078 46.8514 151.078 46.8514C151.077 46.8514 151.076 46.8514 151.075 46.8514C151.074 46.8514 151.073 46.8514 151.072 46.8514C151.072 46.8514 151.071 46.8514 151.071 46.8514C151.07 46.8514 151.069 46.8514 151.068 46.8514C151.067 46.8514 151.067 46.8514 151.066 46.8514C151.065 46.8514 151.064 46.8514 151.063 46.8514C151.063 46.8514 151.063 46.8514 151.062 46.8514C151.061 46.8514 151.06 46.8514 151.059 46.8514C151.058 46.8514 151.057 46.8514 151.057 46.8514C151.056 46.8514 151.055 46.8514 151.055 46.8514C151.054 46.8514 151.053 46.8514 151.052 46.8514C151.052 46.8514 151.051 46.8514 151.05 46.8514C151.049 46.8514 151.048 46.8514 151.048 46.8514C151.047 46.8514 151.047 46.8514 151.046 46.8514C151.045 46.8514 151.044 46.8514 151.043 46.8514C151.042 46.8514 151.041 46.8514 151.041 46.8514C151.04 46.8514 151.04 46.8514 151.039 46.8514C151.038 46.8514 151.037 46.8514 151.036 46.8514C151.036 46.8514 151.035 46.8514 151.034 46.8514C151.033 46.8514 151.032 46.8514 151.032 46.8514C151.031 46.8514 151.031 46.8514 151.03 46.8514C151.029 46.8514 151.028 46.8514 151.027 46.8514C151.026 46.8514 151.026 46.8514 151.025 46.8514C151.025 46.8514 151.024 46.8514 151.023 46.8514C151.022 46.8514 151.021 46.8514 151.021 46.8514C151.02 46.8514 151.019 46.8514 151.018 46.8514C151.017 46.8514 151.017 46.8514 151.016 46.8514C151.016 46.8514 151.015 46.8514 151.014 46.8514C151.013 46.8514 151.012 46.8514 151.011 46.8514C151.011 46.8514 151.01 46.8514 151.009 46.8514C151.009 46.8514 151.008 46.8514 151.007 46.8514C151.006 46.8514 151.006 46.8514 151.005 46.8514C151.004 46.8514 151.003 46.8514 151.002 46.8514C151.002 46.8514 151.001 46.8514 151.001 46.8514C151 46.8514 150.999 46.8514 150.998 46.8514C150.997 46.8514 150.996 46.8514 150.996 46.8514C150.995 46.8514 150.994 46.8514 150.994 46.8514C150.993 46.8514 150.992 46.8514 150.991 46.8514C150.991 46.8514 150.99 46.8514 150.989 46.8514C150.988 46.8514 150.987 46.8514 150.986 46.8514C150.986 46.8514 150.986 46.8514 150.985 46.8514C150.984 46.8514 150.983 46.8514 150.982 46.8514C150.981 46.8514 150.981 46.8514 150.98 46.8514C150.979 46.8514 150.979 46.8514 150.978 46.8514C150.977 46.8514 150.977 46.8514 150.976 46.8514C150.975 46.8514 150.974 46.8514 150.973 46.8514C150.972 46.8514 150.971 46.8514 150.971 46.8514C150.971 46.8514 150.97 46.8514 150.969 46.8514C150.968 46.8514 150.967 46.8514 150.967 46.8514C150.966 46.8514 150.965 46.8514 150.964 46.8514C150.963 46.8514 150.963 46.8514 150.963 46.8514C150.962 46.8514 150.961 46.8514 150.96 46.8514C150.959 46.8514 150.958 46.8514 150.957 46.8514C150.957 46.8514 150.956 46.8514 150.955 46.8514C150.955 46.8514 150.954 46.8514 150.953 46.8514C150.953 46.8514 150.952 46.8514 150.951 46.8514C150.95 46.8514 150.949 46.8514 150.948 46.8514C150.948 46.8514 150.948 46.8514 150.947 46.8514C150.946 46.8514 150.945 46.8514 150.944 46.8514C150.943 46.8514 150.943 46.8514 150.942 46.8514C150.941 46.8514 150.94 46.8514 150.94 46.8514C150.939 46.8514 150.939 46.8514 150.938 46.8514C150.937 46.8514 150.936 46.8514 150.935 46.8514C150.934 46.8514 150.934 46.8514 150.933 46.8514C150.932 46.8514 150.932 46.8514 150.931 46.8514C150.93 46.8514 150.93 46.8514 150.929 46.8514C150.928 46.8514 150.927 46.8514 150.926 46.8514C150.925 46.8514 150.925 46.8514 150.925 46.8514C150.924 46.8514 150.923 46.8514 150.922 46.8514C150.921 46.8514 150.92 46.8514 150.92 46.8514C150.919 46.8514 150.918 46.8514 150.917 46.8514C150.917 46.8514 150.916 46.8514 150.916 46.8514C150.915 46.8514 150.914 46.8514 150.913 46.8514C150.912 46.8514 150.911 46.8514 150.911 46.8514C150.91 46.8514 150.909 46.8514 150.909 46.8514C150.908 46.8514 150.907 46.8514 150.907 46.8514C150.906 46.8514 150.905 46.8514 150.904 46.8514C150.903 46.8514 150.902 46.8514 150.902 46.8514C150.902 46.8514 150.901 46.8514 150.9 46.8514C150.899 46.8514 150.898 46.8514 150.898 46.8514C150.897 46.8514 150.896 46.8514 150.895 46.8514C150.894 46.8514 150.894 46.8514 150.894 46.8514C150.893 46.8514 150.892 46.8514 150.891 46.8514C150.89 46.8514 150.889 46.8514 150.889 46.8514C150.888 46.8514 150.887 46.8514 150.886 46.8514C150.886 46.8514 150.885 46.8514 150.885 46.8514C150.884 46.8514 150.883 46.8514 150.882 46.8514C150.881 46.8514 150.88 46.8514 150.88 46.8514C150.879 46.8514 150.879 46.8514 150.878 46.8514C150.877 46.8514 150.876 46.8514 150.876 46.8514C150.875 46.8514 150.874 46.8514 150.873 46.8514C150.872 46.8514 150.871 46.8514 150.871 46.8514C150.871 46.8514 150.87 46.8514 150.869 46.8514C150.868 46.8514 150.867 46.8514 150.867 46.8514C150.866 46.8514 150.865 46.8514 150.864 46.8514C150.863 46.8514 150.863 46.8514 150.863 46.8514C150.862 46.8514 150.861 46.8514 150.86 46.8514C150.859 46.8514 150.859 46.8514 150.858 46.8514C150.857 46.8514 150.856 46.8514 150.856 46.8514C150.855 46.8514 150.855 46.8514 150.854 46.8514C150.853 46.8514 150.852 46.8514 150.851 46.8514C150.85 46.8514 150.85 46.8514 150.849 46.8514C150.848 46.8514 150.848 46.8514 150.847 46.8514C150.846 46.8514 150.846 46.8514 150.845 46.8514C150.844 46.8514 150.843 46.8514 150.842 46.8514C150.842 46.8514 150.841 46.8514 150.84 46.8514C150.84 46.8514 150.839 46.8514 150.838 46.8514C150.838 46.8514 150.837 46.8514 150.836 46.8514C150.835 46.8514 150.834 46.8514 150.833 46.8514C150.833 46.8514 150.833 46.8514 150.832 46.8514C150.831 46.8514 150.83 46.8514 150.83 46.8514C150.829 46.8514 150.828 46.8514 150.827 46.8514C150.826 46.8514 150.825 46.8514 150.825 46.8514C150.825 46.8514 150.824 46.8514 150.823 46.8514C150.822 46.8514 150.821 46.8514 150.821 46.8514C150.82 46.8514 150.819 46.8514 150.818 46.8514C150.817 46.8514 150.817 46.8514 150.817 46.8514C150.816 46.8514 150.815 46.8514 150.814 46.8514C150.813 46.8514 150.813 46.8514 150.812 46.8514C150.811 46.8514 150.81 46.8514 150.809 46.8514C150.809 46.8514 150.809 46.8514 150.808 46.8514C150.807 46.8514 150.806 46.8514 150.805 46.8514C150.805 46.8514 150.804 46.8514 150.803 46.8514C150.802 46.8514 150.802 46.8514 150.802 46.8514C150.801 46.8514 150.8 46.8514 150.799 46.8514C150.798 46.8514 150.797 46.8514 150.797 46.8514C150.796 46.8514 150.795 46.8514 150.794 46.8514C150.794 46.8514 150.794 46.8514 150.793 46.8514C150.792 46.8514 150.791 46.8514 150.79 46.8514C150.789 46.8514 150.789 46.8514 150.788 46.8514C150.787 46.8514 150.786 46.8514 150.786 46.8514C150.786 46.8514 150.785 46.8514 150.784 46.8514C150.783 46.8514 150.782 46.8514 150.781 46.8514C150.781 46.8514 150.78 46.8514 150.779 46.8514C150.779 46.8514 150.778 46.8514 150.778 46.8514C150.777 46.8514 150.776 46.8514 150.775 46.8514C150.774 46.8514 150.774 46.8514 150.773 46.8514C150.772 46.8514 150.771 46.8514 150.771 46.8514C150.77 46.8514 150.77 46.8514 150.769 46.8514C150.768 46.8514 150.767 46.8514 150.766 46.8514C150.766 46.8514 150.765 46.8514 150.764 46.8514C150.763 46.8514 150.763 46.8514 150.763 46.8514C150.762 46.8514 150.761 46.8514 150.76 46.8514C150.759 46.8514 150.758 46.8514 150.758 46.8514C150.757 46.8514 150.756 46.8514 150.756 46.8514C150.755 46.8514 150.755 46.8514 150.754 46.8514C150.753 46.8514 150.752 46.8514 150.751 46.8514C150.751 46.8514 150.75 46.8514 150.749 46.8514C150.748 46.8514 150.748 46.8514 150.748 46.8514C150.747 46.8514 150.746 46.8514 150.745 46.8514C150.744 46.8514 150.743 46.8514 150.743 46.8514C150.742 46.8514 150.741 46.8514 150.74 46.8514C150.74 46.8514 150.74 46.8514 150.739 46.8514C150.738 46.8514 150.737 46.8514 150.736 46.8514C150.736 46.8514 150.735 46.8514 150.734 46.8514C150.733 46.8514 150.733 46.8514 150.733 46.8514C150.732 46.8514 150.731 46.8514 150.73 46.8514C150.729 46.8514 150.729 46.8514 150.728 46.8514C150.727 46.8514 150.726 46.8514 150.725 46.8514C150.725 46.8514 150.725 46.8514 150.724 46.8514C150.723 46.8514 150.722 46.8514 150.722 46.8514C150.721 46.8514 150.72 46.8514 150.719 46.8514C150.718 46.8514 150.717 46.8514 150.717 46.8514C150.717 46.8514 150.716 46.8514 150.715 46.8514C150.714 46.8514 150.714 46.8514 150.713 46.8514C150.712 46.8514 150.711 46.8514 150.71 46.8514C150.71 46.8514 150.71 46.8514 150.709 46.8514C150.708 46.8514 150.707 46.8514 150.707 46.8514C150.706 46.8514 150.705 46.8514 150.704 46.8514C150.703 46.8514 150.703 46.8514 150.702 46.8514C150.702 46.8514 150.701 46.8514 150.7 46.8514C150.7 46.8514 150.699 46.8514 150.698 46.8514C150.697 46.8514 150.696 46.8514 150.696 46.8514C150.695 46.8514 150.694 46.8514 150.694 46.8514C150.693 46.8514 150.693 46.8514 150.692 46.8514C150.691 46.8514 150.69 46.8514 150.689 46.8514C150.689 46.8514 150.688 46.8514 150.687 46.8514C150.687 46.8514 150.686 46.8514 150.686 46.8514C150.685 46.8514 150.684 46.8514 150.683 46.8514C150.683 46.8514 150.682 46.8514 150.681 46.8514C150.68 46.8514 150.679 46.8514 150.679 46.8514C150.679 46.8514 150.678 46.8514 150.677 46.8514C150.676 46.8514 150.676 46.8514 150.675 46.8514C150.674 46.8514 150.673 46.8514 150.672 46.8514C150.672 46.8514 150.671 46.8514 150.671 46.8514C150.67 46.8514 150.669 46.8514 150.669 46.8514C150.668 46.8514 150.667 46.8514 150.666 46.8514C150.665 46.8514 150.665 46.8514 150.664 46.8514C150.663 46.8514 150.663 46.8514 150.663 46.8514C150.662 46.8514 150.661 46.8514 150.66 46.8514C150.659 46.8514 150.659 46.8514 150.658 46.8514C150.657 46.8514 150.656 46.8514 150.656 46.8514C150.656 46.8514 150.655 46.8514 150.654 46.8514C150.653 46.8514 150.652 46.8514 150.652 46.8514C150.651 46.8514 150.65 46.8514 150.649 46.8514C150.648 46.8514 150.648 46.8514 150.648 46.8514C150.647 46.8514 150.646 46.8514 150.646 46.8514C150.645 46.8514 150.644 46.8514 150.643 46.8514C150.642 46.8514 150.642 46.8514 150.641 46.8514C150.64 46.8514 150.64 46.8514 150.639 46.8514C150.639 46.8514 150.638 46.8514 150.637 46.8514C150.636 46.8514 150.636 46.8514 150.635 46.8514C150.634 46.8514 150.633 46.8514 150.633 46.8514C150.633 46.8514 150.632 46.8514 150.631 46.8514C150.63 46.8514 150.629 46.8514 150.629 46.8514C150.628 46.8514 150.627 46.8514 150.626 46.8514C150.626 46.8514 150.625 46.8514 150.625 46.8514C150.624 46.8514 150.623 46.8514 150.623 46.8514C150.622 46.8514 150.621 46.8514 150.62 46.8514C150.619 46.8514 150.619 46.8514 150.618 46.8514C150.617 46.8514 150.617 46.8514 150.617 46.8514C150.616 46.8514 150.615 46.8514 150.614 46.8514C150.613 46.8514 150.613 46.8514 150.612 46.8514C150.611 46.8514 150.61 46.8514 150.61 46.8514C150.61 46.8514 150.609 46.8514 150.608 46.8514C150.607 46.8514 150.607 46.8514 150.606 46.8514C150.605 46.8514 150.604 46.8514 150.604 46.8514C150.603 46.8514 150.602 46.8514 150.602 46.8514C150.601 46.8514 150.601 46.8514 150.6 46.8514C150.599 46.8514 150.598 46.8514 150.598 46.8514C150.597 46.8514 150.596 46.8514 150.595 46.8514C150.594 46.8514 150.594 46.8514 150.594 46.8514C150.593 46.8514 150.592 46.8514 150.592 46.8514C150.591 46.8514 150.59 46.8514 150.589 46.8514V46.8648ZM151.752 46.8648H151.739V49.1885H151.752H151.765V46.8648H151.752ZM151.752 49.1885V49.1751C151.185 49.2025 150.59 49.1751 149.941 49.1751V49.1885V49.2019C150.588 49.2019 151.185 49.2294 151.753 49.2019L151.752 49.1885ZM149.941 49.1885V49.1751C148.645 49.1751 147.736 48.834 147.152 48.1749C146.568 47.5155 146.304 46.5354 146.304 45.2521H146.291H146.277C146.277 46.5384 146.541 47.5264 147.132 48.1928C147.724 48.8595 148.641 49.2019 149.941 49.2019V49.1885ZM146.291 45.2521H146.304V37.3791H146.291H146.277V45.2521H146.291Z" fill="black"></path>
</g>
<path d="M157.45 29.9102V37.482H157.499C157.784 36.5119 158.513 35.8492 159.397 35.4291C160.28 35.0083 161.32 34.8304 162.226 34.8304C163.85 34.8304 165.274 35.2885 166.291 36.1987C167.309 37.109 167.92 38.471 167.92 40.277V49.0586H165.601V49.0519H165.595V40.8784C165.595 39.7311 165.351 38.8037 164.754 38.1631C164.157 37.5226 163.208 37.1674 161.794 37.1674C160.525 37.1674 159.445 37.5974 158.683 38.3479C157.921 39.0983 157.476 40.1694 157.476 41.4526V49.0586H155.082V29.9102H157.45Z" fill="black" stroke="black" stroke-width="0.15"></path>
<path d="M70.0927 34.6338C72.7 34.6338 74.4447 35.4687 75.5375 36.8196C76.6301 38.1702 77.0701 40.0355 77.0701 42.0947C77.0701 42.3357 77.0622 42.5669 77.0512 42.7937L77.0509 42.8H65.2938C65.2973 45.3734 67.3229 47.4586 70.0343 47.4586C71.3922 47.4586 72.3902 47.1919 73.1101 46.7227C73.8298 46.2535 74.2721 45.5814 74.5179 44.7691L74.5238 44.7709V44.7643H76.7822L76.7802 44.7726C76.3517 46.5504 75.4702 47.7465 74.3002 48.498C73.1303 49.2492 71.6727 49.5558 70.0927 49.5558C67.8015 49.5558 66.0569 48.7206 64.8852 47.3701C63.7137 46.0197 63.1152 44.1545 63.1152 42.0947C63.1152 40.0351 63.7194 38.1698 64.8939 36.8194C66.0686 35.4689 67.8131 34.6338 70.0927 34.6338ZM70.0868 36.7222C68.7345 36.7222 67.6385 37.1251 66.8481 37.8333C66.0593 38.54 65.5742 39.5514 65.4427 40.7715H74.7436C74.6535 39.5595 74.3071 38.5483 73.5762 37.8396C72.8439 37.1296 71.7245 36.7222 70.0868 36.7222Z" fill="black" stroke="black" stroke-width="0.15"></path>
<path d="M99.2899 34.6338C101.897 34.6338 103.642 35.4687 104.735 36.8196C105.827 38.1702 106.267 40.0355 106.267 42.0947C106.267 42.3357 106.259 42.5669 106.248 42.7937L106.248 42.8H94.491C94.4945 45.3734 96.5201 47.4586 99.2315 47.4586C100.589 47.4586 101.587 47.1919 102.307 46.7227C103.027 46.2535 103.469 45.5814 103.715 44.7691L103.721 44.7709V44.7643H105.979L105.977 44.7726C105.549 46.5504 104.667 47.7465 103.497 48.498C102.327 49.2492 100.87 49.5558 99.2899 49.5558C96.9987 49.5558 95.2542 48.7206 94.0824 47.3701C92.9108 46.0197 92.3125 44.1545 92.3125 42.0947C92.3125 40.0351 92.9167 38.1698 94.0911 36.8194C95.2657 35.4689 97.0104 34.6338 99.2899 34.6338ZM99.2836 36.7222C97.9314 36.7222 96.8354 37.1251 96.0448 37.8333C95.256 38.54 94.771 39.5514 94.6395 40.7715H103.941C103.85 39.5595 103.504 38.5483 102.773 37.8396C102.041 37.1296 100.921 36.7222 99.2836 36.7222Z" fill="black" stroke="black" stroke-width="0.15"></path>
<path d="M60.7807 29.9102V49.0586H58.4277V29.9102H60.7807Z" fill="black" stroke="black" stroke-width="0.15"></path>
<path d="M110.591 29.8435V48.9919H108.238V29.8435H110.591Z" fill="black" stroke="black" stroke-width="0.15"></path>
<path d="M80.0726 35.0718L80.0744 35.0758L84.9397 46.2108L89.1905 35.0761L89.1921 35.0718H91.6071L91.6081 35.0722L91.6914 35.1041L91.6976 35.1065L91.6952 35.1127L86.4308 49.0542L86.4291 49.0584H83.6655L83.6637 49.0545L77.5144 35.1131L77.5117 35.1069L77.5177 35.1043L77.5887 35.0724L77.5899 35.0718H80.0726Z" fill="black" stroke="black" stroke-width="0.15"></path>
<path d="M120.571 34.9097C122.642 34.9098 124.369 35.6827 125.578 36.9756C126.788 38.2685 127.48 40.0812 127.48 42.1602C127.48 46.3187 124.658 49.4108 120.544 49.4108C118.326 49.4108 116.649 48.4542 115.566 47.0051H115.549C115.555 47.05 115.559 47.1394 115.56 47.2606C115.561 47.3897 115.56 47.5555 115.559 47.7434C115.555 48.1193 115.548 48.5839 115.548 49.0211V53.921H113.195V35.3998H113.202L115.542 35.3991H115.548V36.0916C115.548 36.4878 115.555 36.8225 115.559 37.0686C115.56 37.1916 115.561 37.2925 115.56 37.3678C115.559 37.4054 115.558 37.4368 115.556 37.4613C115.556 37.4679 115.555 37.4739 115.554 37.4794C116.535 35.8558 118.473 34.9098 120.571 34.9097ZM120.273 36.6657C119.389 36.6657 118.749 36.86 118.258 37.1318C117.768 37.4036 117.426 37.7532 117.14 38.0646C116.793 38.4414 116.459 39.0257 116.212 39.6697C115.965 40.3136 115.804 41.0166 115.804 41.6307V42.2849C115.804 42.8854 115.945 43.6697 116.18 44.3897C116.415 45.1098 116.743 45.7645 117.119 46.1067C117.412 46.3749 117.736 46.7513 118.219 47.0611C118.702 47.3707 119.345 47.6138 120.273 47.6138H120.28V47.6156C122.131 47.6139 123.057 46.8921 123.67 46.3656L123.671 46.3653C124.724 45.46 125.422 43.9068 125.422 42.161C125.422 40.4153 124.72 38.8173 123.663 37.9158C123.051 37.3948 122.042 36.6657 120.273 36.6657Z" fill="black" stroke="black" stroke-width="0.15"></path>
<path d="M136.328 36.6657C134.559 36.6657 133.551 37.3948 132.938 37.9158C131.882 38.8173 131.179 40.4153 131.179 42.161C131.179 43.9068 131.877 45.46 132.931 46.3653V46.3655V46.3656L133.05 46.4665C133.664 46.9796 134.587 47.614 136.322 47.6156V47.6138H136.328C137.256 47.6138 137.899 47.3707 138.382 47.0611C138.866 46.7513 139.19 46.375 139.483 46.1068C139.858 45.7646 140.187 45.1098 140.421 44.3897C140.657 43.6697 140.797 42.8854 140.797 42.2849V41.6307C140.797 41.0166 140.637 40.3136 140.39 39.6697C140.143 39.0257 139.808 38.4414 139.461 38.0646C139.175 37.7532 138.834 37.4036 138.343 37.1318C137.853 36.86 137.213 36.6657 136.328 36.6657ZM143.374 49.0387V49.0455H141.028L141.025 49.0328L141.053 49.0175C141.053 48.5814 141.046 48.1185 141.043 47.7438C141.041 47.5558 141.04 47.3901 141.042 47.261C141.043 47.1397 141.046 47.0503 141.052 47.0055H141.035C139.953 48.4546 138.276 49.4112 136.057 49.4112C131.944 49.4112 129.121 46.3192 129.121 42.1607C129.121 40.0816 129.813 38.2689 131.024 36.976C132.23 35.6863 133.951 34.9141 136.015 34.9102L136.014 34.9097H136.03C138.128 34.9097 140.067 35.8557 141.047 37.4794C141.047 37.4739 141.046 37.4679 141.045 37.4613C141.043 37.4368 141.043 37.4054 141.042 37.3678C141.04 37.2925 141.041 37.1916 141.043 37.0686C141.046 36.8225 141.053 36.4878 141.053 36.0916V35.3991H141.059L143.4 35.3998H143.406V35.4066L143.374 49.0387Z" fill="black" stroke="black" stroke-width="0.15"></path>
<path fill-rule="evenodd" clip-rule="evenodd" d="M51.9439 40.3491H41.4564C39.2199 40.3491 37.1726 39.0308 35.9897 36.9144L32 29.7702C34.1308 27.4529 37.1821 26 40.5715 26C47.016 26 52.2398 31.2494 52.2398 37.7246C52.2398 38.6267 52.1366 39.505 51.9439 40.3491ZM42.8438 43.1062H50.9359C48.9939 46.8724 45.0818 49.4487 40.5695 49.4487C38.9952 49.4487 37.4923 49.1351 36.1229 48.5664L37.9199 45.7909C39.0055 44.1148 40.8581 43.1059 42.8438 43.1059V43.1062Z" fill="#00DBC9"></path>
</g>
<defs>
<clipPath id="clip0_3262_968">
<rect width="136" height="28" fill="white" transform="translate(32 26)"></rect>
</clipPath>
</defs>
</svg>