<svg width="200" height="75" viewBox="0 0 200 75" fill="none" xmlns="http://www.w3.org/2000/svg">
<g clip-path="url(#clip0_1151_7)">
<path d="M57.963 40.4302C58.3593 39.9604 58.6871 39.4467 58.9415 38.8977C59.8271 36.9787 59.7978 34.6683 58.6626 32.7053C57.5265 30.7374 55.5449 29.5631 53.44 29.3723C52.8382 29.3185 52.2256 29.3429 51.6238 29.4506C51.4232 28.8732 51.1394 28.3301 50.792 27.835C49.5727 26.1068 47.5607 24.9766 45.2895 24.9766C43.0182 24.9766 41.0063 26.1068 39.788 27.835C39.4406 28.3243 39.1568 28.8674 38.9562 29.4506C38.3495 29.3429 37.7369 29.3136 37.1399 29.3723C35.035 29.5631 33.0524 30.7384 31.9124 32.7053C30.7675 34.6683 30.743 36.9787 31.6237 38.8977C31.8782 39.4457 32.206 39.9653 32.6023 40.4302C32.2011 40.8999 31.8733 41.4185 31.6237 41.9626C30.7381 43.8816 30.7675 46.1871 31.9026 48.155C33.0378 50.1229 35.0252 51.2972 37.1302 51.488C37.3357 51.5076 37.5363 51.5174 37.7418 51.5174C38.143 51.5174 38.5442 51.4831 38.9464 51.4048C39.1519 51.9822 39.4357 52.5253 39.7831 53.0205C41.0024 54.7486 43.0133 55.8789 45.2846 55.8789C47.5559 55.8789 49.5678 54.7486 50.7861 53.0205C51.1335 52.5263 51.4173 51.9832 51.6228 51.4048C52.024 51.4831 52.4252 51.5174 52.8264 51.5174C53.0319 51.5174 53.2325 51.5076 53.438 51.488C55.543 51.2972 57.5255 50.117 58.6607 48.155C59.7958 46.1871 59.8203 43.8816 58.9396 41.9626C58.69 41.4146 58.3622 40.895 57.961 40.4302H57.963ZM41.5112 28.471C42.4213 27.4044 43.7776 26.7331 45.2856 26.7331C46.7935 26.7331 48.1489 27.4083 49.0599 28.471C49.4416 28.9163 49.7498 29.43 49.9553 29.9888C49.7938 30.0671 49.6324 30.1503 49.4758 30.2383C49.1186 30.4438 48.7468 30.62 48.3651 30.7717C46.3874 31.5496 44.1798 31.5496 42.207 30.7717C41.8253 30.62 41.4535 30.4487 41.0963 30.2383C40.9397 30.1454 40.7783 30.0622 40.6168 29.9888C40.8223 29.4261 41.1306 28.9173 41.5122 28.471H41.5112ZM36.817 49.6767C36.6898 49.6522 36.5675 49.6229 36.4452 49.5935C35.1574 49.251 34.0907 48.429 33.4253 47.2782C32.6718 45.9718 32.5788 44.4638 33.0436 43.1418C33.2345 42.5889 33.528 42.0702 33.9146 41.6093C34.0614 41.7072 34.2081 41.8051 34.3696 41.898C34.7317 42.1035 35.0693 42.3384 35.3873 42.5928C37.047 43.91 38.1528 45.8231 38.4659 47.9182C38.5246 48.3243 38.5589 48.7353 38.5589 49.1522C38.5589 49.3332 38.5638 49.5142 38.5833 49.6904C38.006 49.7931 37.409 49.7882 36.8209 49.6757H36.816L36.817 49.6767ZM49.0589 52.3883C48.1489 53.4549 46.7926 54.1262 45.2846 54.1262C43.7766 54.1262 42.4213 53.451 41.5102 52.3883C41.1286 51.9431 40.8203 51.4293 40.6148 50.8705C40.4191 50.3372 40.3115 49.7599 40.3115 49.1571V49.0494C40.3115 48.4133 40.243 47.7812 40.1207 47.1647C39.6803 44.9913 38.5344 43.0038 36.8708 41.5359C36.4011 41.1249 35.8923 40.7531 35.3433 40.4292C35.8913 40.1063 36.4001 39.7344 36.8708 39.3234C38.5403 37.8546 39.6852 35.8681 40.1207 33.6947C39.8565 33.5674 39.602 33.4304 39.3476 33.2837C39.0736 33.1271 38.7751 33.0097 38.4718 32.9363C38.1537 35.0314 37.0519 36.9455 35.3932 38.2616C35.0752 38.521 34.7327 38.7509 34.3755 38.9564C34.2189 39.0494 34.0672 39.1424 33.9204 39.2451C33.5388 38.7852 33.2452 38.2665 33.0495 37.7127C32.5847 36.3906 32.6777 34.8836 33.4312 33.5762C34.0966 32.4264 35.1691 31.6034 36.451 31.2561C36.5733 31.2218 36.6957 31.1924 36.8229 31.1729C37.41 31.0603 38.0079 31.0603 38.5853 31.1631C39.1578 31.2609 39.7106 31.4567 40.2254 31.7551C40.2547 31.7747 40.289 31.7894 40.3183 31.8041C40.8761 32.1221 41.4535 32.3765 42.0465 32.5771C43.0994 32.9294 44.2003 33.1104 45.2963 33.1104C46.3923 33.1104 47.4942 32.9343 48.5462 32.5771C49.1382 32.3765 49.7165 32.1221 50.2743 31.8041C50.2743 32.4401 50.3428 33.0723 50.4651 33.6888C50.9055 35.8622 52.0514 37.8497 53.715 39.3175C53.9547 39.1512 54.1994 38.9946 54.4538 38.8478C54.7327 38.6863 54.9822 38.4857 55.1926 38.2607C53.533 36.9435 52.4272 35.0304 52.114 32.9353C52.0553 32.5292 52.0211 32.1182 52.0211 31.7013C52.0211 31.5203 52.0162 31.3392 51.9966 31.1631C52.574 31.0603 53.1719 31.0652 53.759 31.1729C53.8862 31.1973 54.0086 31.2267 54.1309 31.2561C55.4187 31.6034 56.4853 32.4254 57.1507 33.5762C57.9042 34.8836 57.9972 36.3906 57.5324 37.7127C57.3367 38.2656 57.048 38.7852 56.6615 39.2451C56.2994 39.6855 55.8541 40.0671 55.3296 40.3705C55.2954 40.39 55.266 40.4096 55.2367 40.4243C54.6887 40.7472 54.1798 41.1191 53.7091 41.5301C52.0397 42.9989 50.8947 44.9854 50.4593 47.1588C50.337 47.7753 50.2685 48.4026 50.2685 49.0436C49.7156 48.7255 49.1382 48.4711 48.5403 48.2754C46.4354 47.5659 44.1446 47.5659 42.0396 48.2754C42.0592 48.564 42.0739 48.8576 42.0739 49.1512C42.0739 49.4741 42.1228 49.7873 42.2109 50.0808C44.1837 49.298 46.3962 49.298 48.369 50.0808C48.7507 50.2276 49.1225 50.4038 49.4797 50.6142C49.6363 50.7071 49.7978 50.7903 49.9592 50.8637C49.7537 51.4264 49.4455 51.9352 49.0638 52.3815L49.0589 52.3864V52.3883ZM57.1449 47.2782C56.4794 48.429 55.4069 49.251 54.125 49.5935C54.0027 49.6278 53.8804 49.6571 53.7531 49.6767C53.166 49.7892 52.5681 49.7941 51.9907 49.6914C52.0103 49.5152 52.0152 49.3342 52.0152 49.1531C52.0152 48.7373 52.0495 48.3263 52.1082 47.9192C52.4262 45.824 53.5281 43.91 55.1868 42.5938C55.5048 42.3345 55.8473 42.1045 56.2045 41.899C56.361 41.806 56.5127 41.7131 56.6595 41.6103C57.0411 42.0702 57.3347 42.5889 57.5304 43.1428C57.9953 44.4648 57.9023 45.9718 57.1488 47.2792H57.1439L57.1449 47.2782Z" fill="black"></path>
<path d="M85.8587 32.2402V49.0541H84.155V36.2984L78.3648 47.733H76.7883L70.9981 36.2984V49.0492H69.2944V32.2402H70.7828L77.582 45.9314L84.3811 32.2402H85.8597H85.8587Z" fill="black"></path>
<path d="M99.594 43.9098V43.0193C99.594 39.6325 97.264 36.9453 93.519 36.9453C89.774 36.9453 87.3462 39.6814 87.3462 43.1426C87.3462 46.6038 89.7251 49.3399 93.6169 49.3399C96.2845 49.3399 98.4432 47.827 99.3337 45.8846H97.5566C96.8618 47.0148 95.4419 47.9014 93.5914 47.9014C91.1196 47.9014 89.4844 46.3641 89.1957 43.9118H99.592L99.594 43.9098ZM93.5435 38.3349C96.0888 38.3349 97.6505 40.112 97.8414 42.4664H89.1722C89.412 39.9701 91.189 38.3349 93.5435 38.3349Z" fill="black"></path>
<path d="M111.474 39.6368C110.828 38.2658 109.002 36.9447 106.599 36.9447C102.971 36.9447 100.548 39.8765 100.548 43.142C100.548 46.4075 102.976 49.3393 106.599 49.3393C109.002 49.3393 110.828 47.9928 111.547 46.6717V49.0506H113.349V31.5215H111.474V39.6368ZM102.418 43.141C102.418 40.6202 104.171 38.4811 106.907 38.4811C109.188 38.4811 111.469 40.1603 111.469 43.141C111.469 46.1218 109.188 47.801 106.907 47.801C104.171 47.801 102.418 45.6618 102.418 43.141Z" fill="black"></path>
<path d="M125.987 37.232V39.6354C125.341 38.2644 123.466 36.9434 121.063 36.9434C117.436 36.9434 115.012 39.8752 115.012 43.1407C115.012 46.4061 117.44 49.3379 121.063 49.3379C123.466 49.3379 125.287 47.9924 126.011 46.6704V49.0493H127.813V37.232H125.987ZM116.882 43.1397C116.882 40.6189 118.635 38.4797 121.371 38.4797C123.652 38.4797 125.933 40.1589 125.933 43.1397C125.933 46.1204 123.652 47.7996 121.371 47.7996C118.635 47.7996 116.882 45.6605 116.882 43.1397Z" fill="black"></path>
<path d="M132.335 49.0546V31.5215H130.46V49.0546H132.335Z" fill="black"></path>
<path d="M136.859 49.0546V31.5215H134.984V49.0546H136.859Z" fill="black"></path>
<path d="M141.45 49.0526V37.2315H139.576V49.0477H141.45V49.0526ZM139.286 33.1782C139.286 33.8486 139.79 34.378 140.509 34.378C141.228 34.378 141.732 33.8495 141.732 33.1782C141.732 32.5069 141.228 31.9785 140.509 31.9785C139.79 31.9785 139.286 32.5069 139.286 33.1782Z" fill="black"></path>
<path d="M149.297 49.3379C153.213 49.3379 155.684 46.3817 155.684 43.1407C155.684 39.8996 153.212 36.9434 149.297 36.9434C145.381 36.9434 142.909 39.8996 142.909 43.1407C142.909 46.3817 145.381 49.3379 149.297 49.3379ZM149.297 38.5052C152.156 38.5052 153.859 40.7617 153.859 43.1407C153.859 45.5196 152.155 47.7761 149.297 47.7761C146.438 47.7761 144.734 45.544 144.734 43.1407C144.734 40.7373 146.463 38.5052 149.297 38.5052Z" fill="black"></path>
<path d="M158.944 42.5936C158.944 40.3615 160.505 38.6285 162.714 38.6285C165.117 38.6285 166.125 40.3077 166.125 42.6377V49.0502H168V42.2756C168 39.2019 166.174 36.9453 163.291 36.9453C161.201 36.9453 159.497 37.8603 158.871 39.5395V37.234H157.069V49.0502H158.944V42.5936Z" fill="black"></path>
</g>
<defs>
<clipPath id="clip0_1151_7">
<rect width="137" height="31.4885" fill="white" transform="translate(31 24.9766)"></rect>
</clipPath>
</defs>
</svg>