<svg width="200" height="75" viewBox="0 0 200 75" fill="none" xmlns="http://www.w3.org/2000/svg">
<mask id="mask0_5444_2903" style="mask-type:luminance" maskUnits="userSpaceOnUse" x="29" y="26" width="143" height="24">
<path d="M172 26H29V49.6815H172V26Z" fill="white"></path>
</mask>
<g mask="url(#mask0_5444_2903)">
<mask id="mask1_5444_2903" style="mask-type:luminance" maskUnits="userSpaceOnUse" x="29" y="26" width="143" height="24">
<path d="M172 26.0273H29V49.6654H172V26.0273Z" fill="white"></path>
</mask>
<g mask="url(#mask1_5444_2903)">
<path d="M127.854 30.0203C125.684 30.3998 124.322 31.0419 123.057 32.3068C122.434 32.9295 122.23 33.2117 121.88 33.9609C121.316 35.1673 121.199 35.7122 121.199 37.1133C121.189 38.5144 121.316 39.0592 121.88 40.2463C123.106 42.8149 125.801 44.2646 129.362 44.2646C133.526 44.2646 136.358 42.4938 137.418 39.2246C137.593 38.6798 137.623 38.3392 137.632 37.1133C137.632 35.8387 137.603 35.5663 137.409 34.9825C136.727 32.9587 135.531 31.6257 133.585 30.75C132.388 30.2149 131.473 30.0398 129.703 30.0106C128.817 29.9911 127.99 30.0008 127.854 30.0203ZM131.357 32.4819C133.818 33.1144 135.258 35.323 134.888 37.8917C134.684 39.3219 133.74 40.6841 132.534 41.2873C131.327 41.9003 129.138 42.1241 127.698 41.7836C125.908 41.3652 124.643 40.2657 124.127 38.6798C123.845 37.8041 123.865 36.2473 124.157 35.4592C124.478 34.603 124.984 33.9025 125.626 33.4063C126.482 32.7446 127.027 32.5403 128.632 32.2581C129.119 32.1706 130.646 32.2971 131.357 32.4819Z" fill="#EE28B7"></path>
<path d="M29 37.1133V44.1674H30.4108H31.8216V39.0982C31.8216 35.8776 31.8605 34.0484 31.9189 34.0679C31.9676 34.0776 33.1351 35.1868 34.5168 36.5295C35.8984 37.8625 37.4843 39.3998 38.0389 39.9349C38.6033 40.4701 39.8 41.6376 40.7146 42.5328L42.3784 44.1576L43.6725 44.1674H44.9568V37.1133V30.0592H43.5946H42.2324V35.1284C42.2324 38.2322 42.1935 40.1782 42.1449 40.1587C42.0379 40.1198 41.2789 39.4095 39.2649 37.4636C37.3676 35.6149 32.9114 31.3338 32.1524 30.6138L31.5589 30.0592H30.2843H29V37.1133Z" fill="#EE28B7"></path>
<path d="M47.6807 37.1133V44.1674H54.4915H61.3023V42.9998V41.8322L55.9315 41.8128L50.5509 41.7836L50.5217 40.0517L50.5023 38.3295H55.9023H61.3023V37.1133V35.8971H55.9023H50.5023V34.1457V32.3944H55.9023H61.3023V31.2268V30.0592H54.4915H47.6807V37.1133Z" fill="#EE28B7"></path>
<path d="M63.0923 30.4192C63.1701 30.6236 63.608 31.8203 64.075 33.0755C64.542 34.3306 65.0674 35.7511 65.2426 36.2376C66.1572 38.709 67.2956 41.7933 67.5972 42.6106C67.782 43.1165 67.9864 43.6809 68.0447 43.856L68.142 44.1674L69.7572 44.1479L71.3626 44.1187L71.6448 43.2917C71.8004 42.8344 72.5399 40.6841 73.2696 38.5046C74.0091 36.3252 74.6512 34.4765 74.6999 34.3987C74.7583 34.2917 75.0891 35.1479 75.7702 37.1911C76.315 38.8063 76.8307 40.3241 76.9183 40.5674C76.9961 40.8106 77.3075 41.7057 77.5896 42.562L78.1053 44.1187L79.701 44.1479L81.2967 44.1674L81.5107 43.6128C81.6275 43.3014 82.0848 42.0852 82.5129 40.9079C82.9507 39.7306 83.6026 37.9598 83.9723 36.9673C84.3323 35.9749 84.955 34.3111 85.3345 33.27C85.7237 32.229 86.1421 31.1003 86.2686 30.7695C86.395 30.4387 86.5021 30.1468 86.5021 30.1176C86.5021 30.0787 85.8113 30.069 84.9745 30.0787L83.4469 30.1079L82.795 31.9079C82.4448 32.9003 82.0458 33.9998 81.9194 34.35C81.7929 34.7003 81.248 36.1987 80.7129 37.6776C80.1777 39.1565 79.7107 40.3728 79.6815 40.3728C79.6426 40.3728 79.3118 39.4679 78.9323 38.349C76.9864 32.5598 76.2761 30.4776 76.1885 30.2733C76.0912 30.0592 76.0718 30.0495 74.7193 30.0787L73.3377 30.1079L72.9777 31.1782C72.7734 31.7619 72.0339 33.9511 71.3237 36.043C69.8447 40.4117 69.8642 40.3728 69.7766 40.3728C69.7475 40.3728 69.6112 40.0809 69.4945 39.7111C69.368 39.3511 69.0274 38.3976 68.7258 37.5998C68.4339 36.7922 68.0447 35.7219 67.8696 35.216C67.6945 34.71 67.3637 33.7857 67.1399 33.1727C66.9161 32.5598 66.6047 31.6841 66.4393 31.2268C65.982 29.9425 66.1864 30.0592 64.4642 30.0592H62.9658L63.0923 30.4192Z" fill="#EE28B7"></path>
<path d="M88.2539 37.1133V44.1674H89.6647H91.0755V41.2484V38.3295H96.4269H101.778V37.1133V35.8971H96.4269H91.0755V34.1457V32.3944H96.4269H101.778V31.2268V30.0592H95.0161H88.2539V37.1133Z" fill="#EE28B7"></path>
<path d="M104.503 37.1133V44.1674H105.865H107.227V41.2485V38.3295H110.273H113.318L115.264 41.2193L117.2 44.1187L118.679 44.1479L120.168 44.1771L118.173 41.2193L116.188 38.2614L116.597 38.135C117.765 37.7847 118.679 37.016 119.205 35.9458C119.516 35.2939 119.535 35.216 119.535 34.1944C119.535 33.1922 119.516 33.0852 119.234 32.4917C118.854 31.7036 118.3 31.0809 117.628 30.6722C116.607 30.069 116.539 30.0593 110.224 30.0593H104.503V37.1133ZM116.111 32.6668C116.831 33.1241 117.152 34.0874 116.821 34.856C116.675 35.216 116.081 35.7706 115.76 35.8485C115.643 35.8777 113.688 35.8874 111.411 35.8777L107.276 35.8485L107.247 34.2431C107.237 33.3674 107.247 32.589 107.276 32.5112C107.315 32.4041 108.083 32.3944 111.528 32.4139L115.741 32.4431L116.111 32.6668Z" fill="#EE28B7"></path>
<path d="M139.335 37.1133V44.1674H140.746H142.157V39.1079C142.157 36.3252 142.186 34.0484 142.225 34.0484C142.293 34.0484 142.663 34.3987 146.632 38.2322C148.16 39.7111 150.174 41.6474 151.108 42.5425L152.811 44.1674H154.105H155.389V37.1133V30.0592H153.978H152.567V35.1187C152.567 37.9014 152.538 40.1782 152.499 40.1782C152.431 40.1782 152.1 39.8571 149.016 36.8701C148.208 36.0917 147.012 34.9338 146.34 34.3014C145.669 33.669 144.424 32.4528 143.558 31.5965L142.001 30.0592H140.668H139.335V37.1133Z" fill="#EE28B7"></path>
<path d="M157.627 31.2268V32.3944H160.74H163.854V38.2809V44.1674H165.265H166.676L166.695 38.3003L166.724 32.443L169.867 32.4138L173 32.3944V31.2268V30.0592H165.313H157.627V31.2268Z" fill="#EE28B7"></path>
</g>
</g>
</svg>