<svg width="200" height="75" viewBox="0 0 200 75" fill="none" xmlns="http://www.w3.org/2000/svg">
<path fill-rule="evenodd" clip-rule="evenodd" d="M65.9954 27.1164H71.217H71.2201L74.8743 27.1134V23.5996H71.0941C68.2297 23.5996 66.4963 24.7535 65.9954 27.1164Z" fill="black"></path>
<path fill-rule="evenodd" clip-rule="evenodd" d="M64.0592 27.1163C62.63 27.1163 62 27.704 62 29.1671V43.923H65.8356V28.7079C65.8356 28.1233 65.8909 27.5969 65.9954 27.1133H65.9892L64.0592 27.1163Z" fill="black"></path>
<path fill-rule="evenodd" clip-rule="evenodd" d="M127.577 23C122.085 23 118.114 27.4718 118.114 33.5015C118.114 39.4516 122.242 43.9234 127.577 43.9234C132.912 43.9234 137 39.5311 137 33.5015C137 27.4718 133.069 23 127.577 23ZM127.577 40.6881C124.289 40.6881 122.045 38.4109 122.045 33.5382C122.045 28.6685 124.328 26.2322 127.577 26.2322C130.826 26.2322 133.069 28.6685 133.069 33.5382C133.069 38.3712 130.866 40.6881 127.577 40.6881Z" fill="black"></path>
<path fill-rule="evenodd" clip-rule="evenodd" d="M85.2592 23C79.7671 23 75.7963 27.4718 75.7963 33.5015C75.7963 39.4516 79.9239 43.9234 85.2592 43.9234C90.5945 43.9234 94.6821 39.5311 94.6821 33.5015C94.6821 27.4718 90.7513 23 85.2592 23ZM85.2592 40.6881C81.9707 40.6881 79.7271 38.4109 79.7271 33.5382C79.7271 28.6685 82.0106 26.2322 85.2592 26.2322C88.5078 26.2322 90.7513 28.6685 90.7513 33.5382C90.7513 38.3712 88.5447 40.6881 85.2592 40.6881Z" fill="black"></path>
<path fill-rule="evenodd" clip-rule="evenodd" d="M112.133 23.5846V26.7647C111.125 25.0507 109.066 23 105.408 23C100.365 23 96.8337 27.1871 96.8337 33.5872C96.8337 39.9903 100.405 43.9234 105.408 43.9234C108.974 43.9234 111.159 42.2553 112.127 40.581V46.5678C112.127 47.1525 112.072 47.679 111.967 48.1626H111.973L113.9 48.1595C115.329 48.1595 115.959 47.5718 115.959 46.1087V23.5846H112.136H112.133ZM112.13 35.3624C112.13 38.867 109.413 40.7463 106.503 40.7463C103.309 40.7463 100.912 38.821 100.912 33.5902C100.912 28.3594 103.306 26.3515 106.503 26.3515C109.699 26.3515 112.191 28.4175 112.191 32.3078L112.13 35.3624Z" fill="black"></path>
<path fill-rule="evenodd" clip-rule="evenodd" d="M106.739 48.1582L100.908 48.1613V51.6751H106.865C109.726 51.6751 111.459 50.5181 111.963 48.1582H106.742H106.739Z" fill="black"></path>
</svg>