<svg width="200" height="75" viewBox="0 0 200 75" fill="none" xmlns="http://www.w3.org/2000/svg">
<path d="M125.469 52.3368C125.239 52.3369 125.01 52.2914 124.797 52.2031C124.583 52.1147 124.389 51.9852 124.226 51.8219C124.063 51.6587 123.933 51.4648 123.845 51.2515C123.757 51.0382 123.711 50.8096 123.711 50.5787V17.7582C123.711 17.5273 123.757 17.2986 123.845 17.0853C123.933 16.872 124.063 16.6781 124.226 16.5149C124.389 16.3516 124.583 16.2221 124.797 16.1338C125.01 16.0454 125.239 16 125.469 16C125.7 15.9999 125.929 16.0454 126.142 16.1337C126.356 16.222 126.55 16.3515 126.713 16.5148C126.876 16.6781 127.006 16.8719 127.094 17.0852C127.182 17.2986 127.228 17.5272 127.228 17.7582V50.5787C127.228 50.8096 127.182 51.0382 127.094 51.2516C127.006 51.4649 126.876 51.6588 126.713 51.822C126.55 51.9853 126.356 52.1148 126.142 52.2031C125.929 52.2915 125.7 52.3369 125.469 52.3368ZM155.539 47.7314C155.688 47.5554 155.802 47.3517 155.872 47.1319C155.943 46.9121 155.97 46.6806 155.951 46.4504C155.932 46.2203 155.869 45.9961 155.763 45.7907C155.658 45.5853 155.513 45.4026 155.337 45.2532C155.161 45.1037 154.957 44.9904 154.737 44.9196C154.518 44.8489 154.286 44.8221 154.056 44.8409C153.826 44.8596 153.602 44.9235 153.396 45.0289C153.191 45.1343 153.008 45.2792 152.859 45.4552C151.042 47.5939 148.322 48.8205 145.396 48.8205C140.549 48.8205 136.605 44.8769 136.605 40.0295C136.605 35.1822 140.549 31.2388 145.396 31.2388C149.335 31.2388 152.626 34.0687 153.34 37.8025H142.583C142.352 37.8025 142.123 37.8479 141.91 37.9363C141.696 38.0247 141.502 38.1542 141.339 38.3175C141.176 38.4808 141.046 38.6746 140.958 38.888C140.87 39.1013 140.824 39.33 140.824 39.5609C140.824 39.7918 140.87 40.0204 140.958 40.2337C141.047 40.4471 141.176 40.6409 141.339 40.8042C141.503 40.9674 141.696 41.0969 141.91 41.1853C142.123 41.2736 142.352 41.3191 142.583 41.319H155.242C155.473 41.3191 155.701 41.2737 155.915 41.1853C156.128 41.097 156.322 40.9675 156.485 40.8042C156.648 40.641 156.778 40.4471 156.866 40.2338C156.955 40.0204 157 39.7918 157 39.5609V39.3262C157 32.9274 151.795 27.7218 145.396 27.7218C138.609 27.7218 133.088 33.243 133.088 40.0295C133.088 46.8161 138.61 52.3368 145.396 52.3368C149.356 52.3368 153.053 50.658 155.539 47.7314ZM117.851 50.5787V39.3255C117.851 32.9267 112.645 27.7213 106.246 27.7213C99.4596 27.7213 93.9384 33.2425 93.9384 40.0291C93.9384 46.8156 99.4596 52.3368 106.246 52.3368C106.477 52.3369 106.706 52.2914 106.919 52.2031C107.133 52.1147 107.326 51.9852 107.49 51.8219C107.653 51.6587 107.782 51.4648 107.871 51.2515C107.959 51.0382 108.005 50.8096 108.005 50.5787C108.005 50.3478 107.959 50.1191 107.871 49.9058C107.783 49.6925 107.653 49.4986 107.49 49.3353C107.326 49.1721 107.133 49.0426 106.919 48.9542C106.706 48.8659 106.477 48.8205 106.246 48.8205C101.399 48.8205 97.4554 44.8769 97.4554 40.0295C97.4554 35.1822 101.399 31.2388 106.246 31.2388C110.706 31.2388 114.334 34.8666 114.334 39.3267V50.5791C114.334 50.81 114.38 51.0387 114.468 51.252C114.556 51.4654 114.686 51.6592 114.849 51.8225C115.012 51.9857 115.206 52.1152 115.42 52.2036C115.633 52.2919 115.862 52.3373 116.092 52.3373C116.559 52.3371 117.006 52.1517 117.336 51.822C117.665 51.4922 117.851 51.045 117.851 50.5787ZM64.6293 45.304C64.6293 43.588 63.9991 41.2474 60.9962 39.841C59.1944 38.997 56.9335 38.6503 54.7471 38.315C49.6248 37.5296 47.8059 36.8733 47.8059 34.7544C47.8059 32.446 51.007 31.2381 54.1695 31.2381C56.1623 31.2381 59.0261 31.6399 61.3547 33.5548C61.533 33.7015 61.7386 33.8117 61.9595 33.879C62.1804 33.9462 62.4124 33.9693 62.6423 33.9469C62.8722 33.9245 63.0954 33.8571 63.2991 33.7484C63.5029 33.6398 63.6833 33.4921 63.83 33.3137C63.9767 33.1353 64.0869 32.9298 64.1541 32.7089C64.2214 32.4879 64.2445 32.2559 64.2221 32.0261C64.1997 31.7962 64.1323 31.573 64.0236 31.3692C63.915 31.1654 63.7672 30.985 63.5889 30.8383C60.4561 28.2616 56.7374 27.7206 54.1699 27.7206C47.3817 27.7206 44.29 31.3663 44.29 34.7535C44.29 36.481 44.9228 38.8372 47.9371 40.2538C49.7488 41.105 52.0194 41.4528 54.2152 41.7898C59.306 42.5705 61.1135 43.2184 61.1135 45.3031C61.1135 47.4065 58.6024 48.8194 54.8661 48.8194C51.0409 48.8194 48.1256 47.2683 46.7288 46.3433C46.3399 46.086 45.8647 45.9937 45.4078 46.0867C44.9509 46.1796 44.5495 46.4503 44.2921 46.8391C44.1647 47.0316 44.0764 47.2474 44.0323 47.474C43.9882 47.7007 43.9893 47.9338 44.0353 48.1601C44.0813 48.3863 44.1715 48.6013 44.3006 48.7927C44.4298 48.9842 44.5953 49.1483 44.7879 49.2757C47.7685 51.2497 51.3477 52.3368 54.8649 52.3368C61.6102 52.3368 64.6293 48.8043 64.6293 45.304ZM90.1225 47.1475C90.3806 46.7591 90.4738 46.2841 90.3818 45.8269C90.2897 45.3698 90.0199 44.9679 89.6316 44.7097C89.2432 44.4516 88.7682 44.3583 88.311 44.4504C87.8539 44.5425 87.452 44.8124 87.1938 45.2008C85.688 47.4672 83.1678 48.8198 80.4534 48.8198C75.6061 48.8198 71.6624 44.8764 71.6624 40.0291C71.6624 35.1817 75.6061 31.2383 80.4534 31.2383C83.1683 31.2383 85.688 32.5909 87.1938 34.8573C87.3216 35.0497 87.4861 35.2149 87.6778 35.3437C87.8695 35.4725 88.0847 35.5622 88.311 35.6078C88.5374 35.6534 88.7706 35.6539 88.9972 35.6094C89.2237 35.5648 89.4393 35.4761 89.6316 35.3482C89.824 35.2205 89.9892 35.056 90.118 34.8643C90.2467 34.6727 90.3365 34.4575 90.382 34.2311C90.4276 34.0048 90.4282 33.7717 90.3837 33.5451C90.3391 33.3185 90.2504 33.1029 90.1225 32.9107C87.9632 29.661 84.3481 27.7211 80.4534 27.7211C73.6668 27.7211 68.1456 33.2423 68.1456 40.0291C68.1456 46.8156 73.6668 52.3368 80.4534 52.3368C84.3486 52.3368 87.9632 50.3969 90.1225 47.1475Z" fill="black"></path>
</svg>