<svg width="200" height="75" viewBox="0 0 200 75" fill="none" xmlns="http://www.w3.org/2000/svg">
<path d="M149.568 7.75325L145.185 9.46999L145.075 12.3191C145.002 14.5837 145.075 15.1316 145.514 15.1316C145.806 15.1316 148.034 14.3645 150.445 13.4514L154.865 11.7346V8.88557C154.865 6.80356 154.718 5.99998 154.426 5.99998C154.171 6.03651 151.979 6.80356 149.568 7.75325Z" fill="#21213D"></path>
<path d="M138.793 17.3596V21.3775L140.144 21.9254C140.875 22.2541 143.797 23.3865 146.61 24.4457C149.459 25.505 153.221 26.966 154.974 27.6601L158.189 28.9385L158.079 24.7379L157.969 20.5374L148.655 16.9213C143.541 14.9489 139.231 13.3052 139.085 13.3052C138.903 13.3052 138.793 15.1315 138.793 17.3596Z" fill="#21213D"></path>
<path d="M141.716 25.3224L138.977 26.3452L138.867 28.4272L138.758 30.4727L141.242 29.523C142.593 29.0116 144.018 28.5002 144.383 28.3906C144.858 28.2445 145.004 27.7697 145.004 26.2356C145.004 25.1398 144.894 24.2632 144.748 24.2997C144.566 24.2997 143.214 24.7745 141.716 25.3224Z" fill="#21213D"></path>
<path d="M47.5155 28.4272C45.6892 29.0846 43.5706 31.0205 43.0958 32.5181C42.8401 33.2486 42.7305 34.6001 42.8401 35.5498C42.9862 36.9743 43.2784 37.4492 44.703 38.7641C45.8353 39.7869 47.1868 40.5539 48.867 41.1018C52.1909 42.1976 54.6747 43.4761 55.1495 44.3162C56.3184 46.5443 54.6747 49.3568 52.0082 49.7221C51.1681 49.8316 49.8897 49.7221 49.1957 49.4664C47.4059 48.882 44.3742 46.106 43.0593 43.8413L42 41.9785L42.2192 43.4395C42.3287 44.2431 42.6209 45.9598 42.8401 47.2748L43.2784 49.649L45.8353 50.1239C51.2777 51.1466 55.7339 50.0873 57.5968 47.3479C58.6195 45.7772 58.9848 43.3299 58.4369 41.6497C57.9255 40.0426 55.7339 38.0701 53.6519 37.3031C52.7753 36.9743 51.0586 36.3534 49.8897 35.9151C47.0041 34.8558 46.0179 33.8331 46.0179 31.9702C46.0179 29.9613 47.552 28.6463 49.9993 28.6463C52.41 28.6463 54.6016 30.1074 56.6106 33.066C58.0716 35.2576 58.1447 35.3307 57.9621 34.1253C57.8159 33.4313 57.6333 31.9702 57.4872 30.9475L57.2315 29.0116L55.4052 28.4637C53.2136 27.8062 49.2688 27.8062 47.5155 28.4272Z" fill="#21213D"></path>
<path d="M124.256 28.8654C121.553 29.5594 120.531 30.1803 118.814 32.0432C116.33 34.7096 115.965 35.6958 115.965 39.4215C115.965 42.3802 116.074 42.8915 117.061 44.6813C119.106 48.407 122.138 50.2699 126.448 50.489C128.859 50.6352 129.553 50.489 131.233 49.722C138.209 46.5442 140.218 37.8144 135.251 32.2989C132.402 29.1211 128.165 27.8061 124.256 28.8654ZM129.334 29.8516C131.123 31.057 132.11 33.1025 132.584 36.609C133.315 42.0149 132 47.4574 129.553 49.2471C128.895 49.7585 127.946 50.0142 126.923 50.0142C125.9 50.0142 124.95 49.7585 124.293 49.2471C120.129 46.252 119.873 33.8695 123.891 30.2534C125.498 28.7558 127.507 28.6097 129.334 29.8516Z" fill="#21213D"></path>
<path d="M63.6605 29.6325L61.3594 30.5457V38.3258C61.3594 46.9095 61.542 47.9323 63.551 49.576C64.1719 50.1239 65.3408 50.6352 66.2904 50.7448C67.6419 50.964 68.2994 50.8179 70.3084 49.8682C71.6598 49.2472 73.1939 48.4071 73.7784 48.0053C74.3263 47.6035 74.9107 47.2748 75.0203 47.2748C75.1298 47.2748 75.2394 47.9323 75.2394 48.7359V50.1969H77.6136H79.9879V39.4582V28.6829L77.7232 29.596C76.4813 30.0709 75.4221 30.4726 75.349 30.4726C75.2759 30.4726 75.2394 34.0888 75.2394 38.5085V46.5443L73.8149 47.2748C70.8562 48.7724 67.8611 48.4802 66.8383 46.5808C66.6192 46.1425 66.4731 42.4533 66.4731 37.2666C66.4731 32.5181 66.3635 28.6463 66.2174 28.6829C66.0348 28.6829 64.9024 29.1212 63.6605 29.6325Z" fill="#21213D"></path>
<path d="M86.0879 29.6325L83.6406 30.5457L83.7137 44.6814L83.8233 58.7806L86.3071 58.8902L88.7543 58.9998V54.2878V49.5759L90.6902 50.2334C93.0644 51.0735 95.0003 51.11 97.5572 50.343C100.078 49.5759 101.904 48.261 103.292 46.179C104.936 43.7317 105.301 42.1611 105.118 38.3623C104.936 34.4905 104.242 32.8103 101.94 30.7283C99.1278 28.1714 95.8039 28.0619 91.786 30.3265C90.4345 31.1301 89.1926 31.7876 89.0465 31.8606C88.9004 31.9337 88.7543 31.2397 88.6813 30.363L88.5717 28.7193L86.0879 29.6325ZM95.4387 31.3492C96.0961 31.6049 97.0824 32.372 97.6302 33.0295C99.4566 35.1845 99.8584 36.536 99.8584 40.7C99.8949 44.17 99.7853 44.7179 98.8721 46.6173C96.6075 51.2562 91.8591 51.4023 89.5944 46.9095C88.8274 45.4119 88.7543 44.791 88.7543 38.9833V32.7007L89.9232 32.0798C92.407 30.8013 93.7219 30.6187 95.4387 31.3492Z" fill="#21213D"></path>
<path d="M110.487 29.5593L108.296 30.3995L108.186 40.2981L108.113 50.1968H110.487H112.862V39.4215C112.862 33.5042 112.825 28.6462 112.789 28.6827C112.716 28.6827 111.693 29.0845 110.487 29.5593Z" fill="#21213D"></path>
</svg>