<svg width="200" height="75" viewBox="0 0 200 75" fill="none" xmlns="http://www.w3.org/2000/svg">
<g clip-path="url(#clip0_2481_19)">
<path d="M114.288 46.7214C113.739 46.0501 113.439 45.2115 113.439 44.3463V38.1C113.439 33.6673 111.337 31.1287 107.62 31.1287C102.67 31.1287 101.711 33.8089 100.394 36.0892C100.33 36.1995 100.189 36.2387 100.076 36.1785L99.8004 36.0318C99.6824 35.9692 99.6401 35.822 99.7064 35.7066L100.082 35.0535C100.32 34.648 100.447 34.1878 100.447 33.7187V32.7764C100.447 32.1681 99.9512 31.6753 99.3393 31.6753H93.9489C93.1372 31.6753 92.6996 32.6223 93.2288 33.2343L94.0142 34.1425C94.8062 35.0582 95.2414 36.2252 95.2414 37.4324V43.916C95.2414 44.6355 95.0867 45.3465 94.7878 46.0015L94.1637 47.3694C93.8784 47.9941 94.338 48.7032 95.0285 48.7032H101.763C102.564 48.7032 103.005 47.7763 102.496 47.1606L101.951 46.5009C101.395 45.8277 101.091 44.983 101.091 44.1117V40.534C101.091 39.2853 101.392 38.0458 102.022 36.9652C102.786 35.6538 103.785 34.9834 105.034 34.9834C106.716 34.9834 107.62 36.1743 107.62 38.3252V44.1365C107.62 44.8387 107.473 45.5329 107.188 46.1748L106.653 47.3788C106.376 48.0025 106.835 48.7037 107.522 48.7037H113.914C114.713 48.7037 115.155 47.7815 114.65 47.1643L114.289 46.7219L114.288 46.7214Z" fill="#240642"></path>
<path d="M126.293 46.2114C126.078 46.2539 125.867 46.2834 125.681 46.2876C123.944 46.2876 123.108 45.2004 123.108 42.9649V34.0805H126.272C126.638 34.0805 126.935 33.7852 126.935 33.4217V32.3454C126.935 31.9814 126.638 31.6862 126.271 31.6862H122.223C122.11 31.6862 122.017 31.5946 122.017 31.4815V31.1802C122.017 31.0681 122.109 30.9765 122.221 30.9756H122.633C122.895 30.9765 123.108 30.7649 123.108 30.5042V28.1533C123.108 27.7053 122.742 27.3418 122.291 27.3418H119.964C119.539 27.3418 119.164 27.6151 119.039 28.0178C118.77 28.8994 118.123 31.6857 116.019 31.6857H115.393C115.029 31.6857 114.732 31.9805 114.732 32.3449V33.4213C114.732 33.7857 115.029 34.0805 115.393 34.0805H117.323V43.1897C117.323 46.8958 119.22 48.9407 122.658 48.9407C124.374 48.9407 125.93 48.318 126.873 47.1948C127.239 46.7561 126.857 46.1016 126.293 46.2114H126.293Z" fill="#240642"></path>
<path d="M92.4928 45.5418C91.4678 45.7254 90.7745 44.9275 90.7745 43.675V37.6464C90.7745 33.3469 88.033 31.0376 82.7079 31.0376C77.9393 31.0376 74.6822 32.8601 74.6732 35.6123C74.6709 36.1066 74.858 36.5906 75.1324 37.0568C75.5742 37.731 76.3728 38.1832 77.2874 38.1832C78.6795 38.1832 79.808 37.1395 79.808 35.8519C79.8033 34.5317 78.6823 33.8627 78.3421 33.7365C78.5841 33.5319 79.628 32.7321 81.1701 32.7321C83.6211 32.7321 84.9338 34.5784 84.9338 37.4539V38.5967C83.0942 38.5967 81.0305 38.7803 79.5791 39.1321C76.0278 39.9034 74.1562 41.9123 74.1562 44.4145C74.1562 47.2368 76.416 48.9999 79.9969 48.9999C82.4828 48.9999 84.5479 48.1356 85.5161 46.6902C86.1281 47.9105 87.4836 48.6799 89.2273 48.6799C91.4828 48.6799 92.6634 47.5101 93.0366 46.1202C93.133 45.7245 92.8322 45.476 92.4928 45.5418ZM84.9338 44.1898C84.7421 45.5353 83.8063 46.3384 82.4503 46.3384C80.9647 46.3384 79.9645 45.3447 79.9645 43.7721C79.9645 42.5537 80.5125 41.4876 81.7082 40.9751C82.5138 40.6214 83.7715 40.4285 84.9333 40.3967V44.1898H84.9338Z" fill="#240642"></path>
<path d="M146.438 45.5418C145.413 45.7254 144.72 44.9275 144.72 43.675V37.6464C144.72 33.3469 141.978 31.0376 136.653 31.0376C131.885 31.0376 128.627 32.8601 128.619 35.6123C128.616 36.1066 128.803 36.5906 129.078 37.0568C129.52 37.731 130.318 38.1832 131.233 38.1832C132.625 38.1832 133.753 37.1395 133.753 35.8519C133.749 34.5317 132.628 33.8627 132.287 33.7365C132.529 33.5319 133.573 32.7321 135.115 32.7321C137.566 32.7321 138.879 34.5784 138.879 37.4539V38.5967C137.04 38.5967 134.976 38.7803 133.524 39.1321C129.973 39.9034 128.102 41.9123 128.102 44.4145C128.102 47.2368 130.361 48.9999 133.942 48.9999C136.428 48.9999 138.493 48.1356 139.461 46.6902C140.073 47.9105 141.429 48.6799 143.173 48.6799C145.428 48.6799 146.609 47.5101 146.982 46.1202C147.078 45.7245 146.777 45.476 146.438 45.5418ZM138.879 44.1898C138.687 45.5353 137.752 46.3384 136.396 46.3384C134.91 46.3384 133.91 45.3447 133.91 43.7721C133.91 42.5537 134.458 41.4876 135.654 40.9751C136.459 40.6214 137.717 40.4285 138.879 40.3967V44.1898H138.879Z" fill="#240642"></path>
<path d="M75.0721 26.0007H72.1454C71.5156 26.0007 71.1382 26.6968 71.4846 27.2196L71.9861 27.9769C72.4147 28.6239 72.4984 29.4382 72.2103 30.1582L66.9594 43.2861C66.7179 43.9182 66.473 44.3512 66.3616 44.4578C66.3024 44.5148 66.2027 44.5316 66.1252 44.4741L65.8484 44.255C65.7605 44.1896 65.7656 44.0938 65.8465 44.0041C66.0006 43.8009 66.096 43.5561 66.1501 43.3328C66.2145 43.0651 66.1929 42.7838 66.0942 42.5264L61.647 30.8421C61.3533 30.0708 61.365 29.2177 61.679 28.4548L62.1541 27.3008C62.4098 26.68 61.9502 25.9993 61.2752 25.9993H54.1101C53.1447 25.9997 52.6413 27.1415 53.2951 27.847L53.751 28.3389C54.5886 29.2425 55.2508 30.2922 55.7039 31.435L62.0888 48.0205C62.2557 48.4414 62.6646 48.7176 63.1195 48.7176H66.6549C67.1089 48.7176 67.5173 48.4419 67.6846 48.0224L75.9548 27.2924C76.202 26.6725 75.7428 26.0007 75.0721 26.0007Z" fill="#240642"></path>
</g>
<defs>
<clipPath id="clip0_2481_19">
<rect width="94" height="23" fill="white" transform="translate(53 26)"></rect>
</clipPath>
</defs>
</svg>