<svg width="200" height="75" viewBox="0 0 200 75" fill="none" xmlns="http://www.w3.org/2000/svg">
<g clip-path="url(#clip0_1122_102)">
<path d="M90.9504 29.2051H94.1715L99.77 44.9269L105.368 29.2051H108.513L101.534 48.4547H97.9294L90.9504 29.2051Z" fill="black"></path>
<path d="M113.191 29.2051H110.2V48.4547H113.191V29.2051Z" fill="black"></path>
<path d="M119.02 42.1681C119.096 43.3184 119.556 44.2387 120.477 45.0057C121.397 45.7726 122.624 46.0793 124.081 46.0793C125.385 46.0793 126.459 45.7726 127.302 45.2357C128.146 44.6989 128.529 44.0087 128.529 43.0884C128.529 42.3214 128.299 41.7846 127.916 41.3245C127.532 40.941 126.995 40.6342 126.382 40.4808C125.768 40.3275 124.848 40.1741 123.774 40.0207C122.471 39.8673 121.09 39.6372 119.863 39.2538C118.943 38.947 118.023 38.4102 117.409 37.7199C116.795 37.0297 116.489 36.0327 116.489 34.729C116.489 33.6553 116.795 32.5816 117.409 31.738C118.099 30.8177 118.943 30.1275 119.94 29.6673C121.09 29.1305 122.317 28.9004 123.544 28.9004C125.768 28.9004 127.532 29.4372 128.913 30.5109C130.293 31.5846 131.06 33.0417 131.213 35.0357H128.223C128.146 34.5756 127.992 34.0387 127.762 33.6553C127.532 33.1951 127.226 32.8884 126.765 32.5816C125.922 31.8914 124.925 31.5846 123.698 31.5846C122.471 31.5846 121.397 31.8914 120.63 32.4282C119.863 32.9651 119.48 33.6553 119.48 34.5756C119.48 35.2658 119.633 35.726 120.017 36.1094C120.4 36.4929 120.86 36.7229 121.397 36.7996C121.934 36.953 122.854 37.0297 124.004 37.1831C125.385 37.3365 126.689 37.5666 128.069 38.0267C129.066 38.3335 129.91 38.947 130.6 39.7139C131.213 40.4808 131.597 41.5545 131.597 42.8583C131.597 43.932 131.29 45.0057 130.6 45.926C129.91 46.8463 128.989 47.5365 127.916 47.9966C126.765 48.4568 125.462 48.7635 124.158 48.6869C121.704 48.6869 119.786 48.0733 118.329 46.9229C116.872 45.7726 116.105 44.162 116.105 42.0914L119.02 42.1681Z" fill="black"></path>
<path d="M134.435 33.6528C135.125 32.1957 136.199 31.0453 137.579 30.2017C138.883 29.3581 140.417 28.9746 142.181 28.9746C143.868 28.9746 145.402 29.3581 146.705 30.0483C148.009 30.7385 149.083 31.8889 149.773 33.1927C150.54 34.5731 150.923 36.1836 151 38.1009C151 38.4077 151 38.7912 150.923 39.4047H136.505V39.6348C136.582 41.5521 137.119 43.0092 138.193 44.1596C139.266 45.3099 140.647 45.8468 142.411 45.8468C143.714 45.8468 144.865 45.4633 145.785 44.7731C146.705 44.0829 147.396 43.0859 147.702 41.8588H150.693C150.387 43.7761 149.39 45.4633 147.932 46.6904C146.475 47.9175 144.711 48.531 142.564 48.531C140.723 48.531 139.113 48.1475 137.732 47.3039C136.352 46.4603 135.202 45.3099 134.511 43.8528C133.744 42.3957 133.361 40.6318 133.361 38.7145C133.361 36.8739 133.744 35.1866 134.435 33.6528ZM147.932 36.8739C147.779 35.2633 147.165 33.9596 146.168 33.0393C145.171 32.119 143.791 31.6588 142.257 31.6588C140.877 31.6588 139.573 32.119 138.499 33.116C137.426 34.0363 136.812 35.34 136.659 36.8739H147.932Z" fill="black"></path>
<path d="M59.6602 21.2301L72.6211 44.4677L67.2526 54.0541L49 21.2301H59.6602ZM76.4556 21C75.382 21 74.3083 21.3068 73.388 21.9203C72.4677 22.5338 71.7774 23.4541 71.394 24.4511C71.0105 25.5248 70.8571 26.5985 71.0872 27.7489C71.3173 28.8226 71.8541 29.8962 72.6211 30.6632C73.388 31.4301 74.385 31.9669 75.4586 32.197C76.5323 32.4271 77.606 32.2737 78.603 31.8902C79.6 31.4301 80.4436 30.7398 81.0571 29.8195C81.6707 28.8992 81.9774 27.8256 81.9774 26.6752C81.9774 25.9083 81.8241 25.218 81.594 24.5278C81.2872 23.8376 80.9038 23.2241 80.3669 22.6872C79.8301 22.1504 79.2165 21.7669 78.603 21.4602C77.8361 21.1534 77.1459 21 76.4556 21Z" fill="black"></path>
</g>
<defs>
<clipPath id="clip0_1122_102">
<rect width="102" height="33.0541" fill="white" transform="translate(49 21)"></rect>
</clipPath>
</defs>
</svg>