<svg width="200" height="75" viewBox="0 0 200 75" fill="none" xmlns="http://www.w3.org/2000/svg">
<path d="M110.03 38C110.03 34.7652 111.663 32.713 114.165 32.713C116.667 32.713 118.301 34.7652 118.301 38C118.301 41.2348 116.667 43.3217 114.165 43.3217C111.663 43.3217 110.03 41.2 110.03 38ZM102.697 28.9913C99.6737 28.9913 97.3454 31.5652 97.3454 36.0521V47.0435H102.836V28.9913H102.697ZM94.9127 28.9913C89.3177 28.9913 86.3638 30.5913 79.9695 37.1304L75 42.2087V47.0435H95.434V41.6173H83.2362L95.434 28.9913H94.9127ZM104.747 54H110.238V42.9391C110.933 45.8609 113.366 47.5652 116.355 47.5652C120.803 47.5652 124 43.6696 124 38C124 32.3304 120.803 28.4348 116.355 28.4348C113.366 28.4348 110.933 30.1391 110.238 33.0609V28.9913H104.747V54ZM102.836 22H97.3454V27.4261H102.836V22ZM95.434 22H75.417V27.4261H95.434V22Z" fill="black"></path>
</svg>